<?xml version="1.0" encoding="utf-8"?>
<!-- Generator: Adobe Illustrator 19.0.0, SVG Export Plug-In . SVG Version: 6.00 Build 0)  -->
<svg version="1.1" id="Layer_1" xmlns="http://www.w3.org/2000/svg" xmlns:xlink="http://www.w3.org/1999/xlink" x="0px" y="0px"
	 viewBox="0 0 339 218.9" style="enable-background:new 0 0 339 218.9;" xml:space="preserve">
<style type="text/css">
	.st0{fill:#231F20;}
	.st1{fill:#FFFFFF;}
	.st2{fill:#D1D3D4;}
	.st3{fill:#E84426;stroke:#000000;stroke-miterlimit:10;}
	.st4{fill:#1D1D1B;}
	.st5{fill:#F5A044;}
	.st6{fill:#FFE33E;stroke:#FAEA39;stroke-miterlimit:10;}
	.st7{fill:#53C3EC;}
	.st8{fill:#2DA836;}
	.st9{fill:none;}
</style>
<path class="st0" d="M50.5,183.2c-0.8,0-1.5-0.7-1.5-1.5v-47.8c0-0.8,0.7-1.5,1.5-1.5s1.5,0.7,1.5,1.5v47.8
	C52,182.6,51.3,183.2,50.5,183.2L50.5,183.2z"/>
<path class="st1" d="M247.8,139.6c0.1,6.6-1.3,13.1-4.1,19c-8.3,17.3-27.8,28-46.9,32.5c-16.1,3.7-32.7,3.9-49.2,3.2
	c-17.5-0.7-35.8-2.6-50.5-12.1c-13.9-9-24.3-22.5-29.5-38.3c-6-18.8-7.9-38.6-8.7-58.2c-0.3-4.7-0.3-9.3,0.1-14
	c0.2-1.8,0.4-3.6,0.8-5.4c1.6-7.8,5.5-15,11-20.7c1.3-1.3,2.6-2.6,4-3.7c16.3-13.6,41.8-16.9,59.9-4.9c12.7,8.4,25.6,14.5,34.4,27.7
	c2.7,4,4.9,8.2,7.6,12.2c7.8,11.4,18.9,20,31.8,24.8c3.3,1.2,6.6,2,10.1,2.5c9.3,1.6,18.1,2.3,23.8,11.9c3.8,6.5,5.2,14.1,5.5,21.6
	c0,0.5,0,1,0.1,1.5C247.8,139.3,247.8,139.4,247.8,139.6z"/>
<path class="st0" d="M109,29.6c9-0.1,17.9,2.5,25.5,7.4c12.7,8.4,25.6,14.5,34.4,27.7c2.7,4,4.9,8.2,7.6,12.2
	c7.8,11.4,18.9,20,31.8,24.8c3.3,1.2,6.6,2,10.1,2.5c9.3,1.6,18.1,2.3,23.8,11.9c3.8,6.5,5.2,14.1,5.5,21.6c0,0.5,0,1,0.1,1.5
	c0,0.2,0,0.3,0,0.5c0.1,6.6-1.3,13.1-4.1,19c-8.3,17.3-27.8,28-46.9,32.5c-11.5,2.7-23.4,3.5-35.2,3.5c-4.7,0-9.3-0.1-14-0.3
	c-17.5-0.7-35.8-2.6-50.5-12.1c-13.9-9-24.3-22.5-29.5-38.3c-6-18.8-7.9-38.6-8.7-58.2c-0.3-4.7-0.3-9.3,0.1-14
	c0.2-1.8,0.4-3.6,0.8-5.4c1.6-7.8,5.5-15,11-20.7c1.3-1.3,2.6-2.6,4-3.7C84.3,33.9,96.5,29.6,109,29.6 M109,28.6
	c-12.8,0-25.1,4.5-35,12.5c-1.4,1.2-2.8,2.5-4.1,3.8c-5.7,5.9-9.5,13.2-11.2,21.2c-0.4,1.8-0.6,3.6-0.8,5.5
	c-0.3,4.7-0.4,9.4-0.1,14.1c0.8,17.8,2.4,38.6,8.8,58.5c5.3,15.9,15.8,29.6,29.9,38.8c14.9,9.5,33.3,11.5,51,12.3
	c5.2,0.2,9.8,0.3,14,0.3c13.8,0,25.1-1.1,35.5-3.6c22.7-5.3,40.1-17.3,47.6-33c2.9-6.1,4.4-12.7,4.3-19.5v-0.3c0-0.1,0-0.1,0-0.2
	c0-0.5,0-1-0.1-1.5v-0.1c-0.5-9.1-2.3-16.3-5.7-22c-5.4-9.3-13.6-10.6-22.3-12l-2.1-0.4c-3.4-0.5-6.7-1.3-9.9-2.4
	C196,96,185,87.5,177.4,76.3c-1.3-1.9-2.5-4-3.7-6s-2.5-4.2-3.9-6.2C162.6,53.4,153,47.4,142.7,41c-2.5-1.6-5.1-3.2-7.7-4.9
	C127.3,31.1,118.3,28.5,109,28.6L109,28.6z"/>
<path class="st2" d="M169.7,88h-0.1c-0.3-0.1-0.4-0.3-0.4-0.6c0,0,0,0,0,0c0.9-3.9,5.9-6.1,6.1-6.2c0.2-0.1,0.5-0.1,0.7,0.2
	c0.1,0.2,0.1,0.5-0.2,0.7c0,0-0.1,0-0.1,0c0,0-4.8,2.1-5.6,5.5C170.1,87.9,169.9,88,169.7,88z"/>
<path class="st2" d="M137.6,147.9c-0.1,0-0.2,0-0.2-0.1c-0.2-0.1-0.3-0.4-0.2-0.7c3.4-6.7,9.3-12.3,12.8-15.2
	c-1.4,0.5-3.1,1.1-4.9,1.6c-7.5,2.5-16.9,5.5-18.3,9.9c-0.1,0.3-0.4,0.4-0.6,0.3c-0.3-0.1-0.4-0.4-0.3-0.6c1.5-4.8,11.1-8,18.9-10.5
	c2.8-0.8,5.5-1.8,8.2-3c0.2-0.1,0.5,0,0.6,0.2c0.1,0.2,0.1,0.5-0.1,0.7c-0.1,0.1-10.4,7.3-15.4,17.1
	C138,147.8,137.8,147.9,137.6,147.9z"/>
<path class="st2" d="M202.6,141.9c-0.2,0-0.4-0.1-0.4-0.3c-0.1-0.2,0-0.5,0.2-0.7c7.1-3.5,15.4-6.8,23.3-4.7
	c0.9,0.1,1.7,0.6,2.2,1.4c0.2,0.2,0.1,0.5-0.1,0.7s-0.5,0.1-0.7-0.1c0,0,0-0.1-0.1-0.1c-0.4-0.5-1-0.8-1.6-0.9
	c-7.6-2-15.7,1.3-22.6,4.7C202.7,141.9,202.6,141.9,202.6,141.9z"/>
<path class="st2" d="M127,106.4c-0.1,0-0.1,0-0.2,0c-0.2-0.1-0.3-0.2-0.3-0.4c-0.6-1-8.2-7-18.2-9.8c-9.4-2.7-17.7-1.8-24.6,2.7
	c-0.2,0.2-0.5,0.1-0.7-0.1c0,0,0,0,0,0c-0.1-0.2-0.1-0.5,0.1-0.7c17.3-11.2,38.9,2.5,43.3,6.5c0.9,0.8,1.2,1.2,1,1.6
	C127.4,106.3,127.2,106.4,127,106.4z"/>
<path class="st2" d="M104.1,139.3c-0.3,0-0.5-0.2-0.5-0.5c0-0.1,0-0.3,0.1-0.4c19.5-20.6,33-14.7,33.5-14.4c0.3,0.1,0.4,0.4,0.2,0.7
	c-0.1,0.3-0.4,0.4-0.7,0.2c-0.1-0.1-13.5-5.8-32.4,14.2C104.4,139.2,104.3,139.3,104.1,139.3z"/>
<path class="st1" d="M221.1,81.4l5.4-11.4c0,0,37.8,13.4,42.9,18.8s5.8,8.9,12,8.7h0.1c3-0.4,6-3.1,8.2-5c4.1-3.4,8.1-7,11.8-10.9
	c3.7-3.6,7-7.6,10.1-11.7c1.1-1.6,2.9-3.8,3.2-5.7c0.3-2.4-1.9-6.1-4-7.2c-5.2-2.9-14,5.4-18,8c-2.3,1.5-6.2,5.2-8.9,5.2
	c-1.5,0-3.8-1.3-5.2-1.9c-7.2-2.8-14.4-5.8-21.6-8.7c-8.6-3.5-17.1-6.9-25.8-10.1c-3.2-1.2-6.4-2.3-9.6-3.3
	c-1.3-0.4-3.5-1.3-4.9-0.9c-4.6,1.3-19.1,24.7-19.1,24.7"/>
<path class="st0" d="M280.9,98c-4.5,0-6.2-2.1-8.7-5.2c-0.9-1.1-1.9-2.3-3.1-3.6c-4.6-4.9-38.1-17-42.2-18.5l-5.2,11
	c-0.1,0.3-0.4,0.4-0.6,0.3c-0.3-0.1-0.4-0.4-0.3-0.6c0,0,0,0,0-0.1l5.4-11.4c0.1-0.2,0.4-0.3,0.6-0.3c1.5,0.6,38,13.5,43.1,18.9
	c1.3,1.4,2.3,2.6,3.2,3.7c2.6,3.2,4,5,8.4,4.8c2.5-0.4,5-2.4,7.1-4.1l0.9-0.8c4.1-3.4,8-7,11.7-10.8c3.6-3.6,7-7.5,10.1-11.7
	l0.5-0.7c1.1-1.4,2.4-3.2,2.6-4.8c0.3-2.2-1.9-5.7-3.7-6.7c-3.9-2.2-10.3,2.7-14.5,5.8c-1.2,0.9-2.2,1.6-3,2.2
	c-0.6,0.4-1.3,0.9-2.1,1.5c-2.3,1.8-4.9,3.7-7,3.8c-1.4-0.2-2.8-0.6-4-1.3c-0.5-0.2-0.9-0.4-1.3-0.6c-5.1-2-10.2-4.1-15.2-6.1
	l-6.4-2.6c-8.4-3.4-17-6.9-25.8-10.1c-2.9-1.1-6.3-2.3-9.6-3.3l-0.9-0.3c-1.2-0.4-2.7-0.9-3.7-0.6c-3.6,1.1-14.8,18.1-18.8,24.5
	c-0.1,0.2-0.4,0.3-0.7,0.2c0,0,0,0,0,0c-0.2-0.1-0.3-0.4-0.2-0.7c0,0,0,0,0,0c0.6-1,14.6-23.6,19.3-25c1.3-0.4,3,0.2,4.3,0.7
	l0.9,0.3c3.3,1,6.7,2.2,9.6,3.3c8.8,3.2,17.5,6.8,25.9,10.2l6.4,2.6c5,2,10.1,4.1,15.2,6.1c0.4,0.2,0.9,0.4,1.4,0.6
	c1.1,0.6,2.3,1,3.5,1.2l0,0c1.8,0,4.4-2,6.5-3.6c0.8-0.6,1.5-1.2,2.2-1.6c0.8-0.5,1.8-1.3,3-2.1c4.7-3.5,11.1-8.4,15.6-5.9
	c2.2,1.2,4.5,5,4.2,7.7c-0.2,1.8-1.6,3.7-2.8,5.3c-0.2,0.2-0.4,0.5-0.5,0.7c-3.1,4.2-6.5,8.1-10.2,11.8c-3.7,3.9-7.7,7.5-11.8,10.9
	l-0.9,0.8c-2.1,1.8-4.8,3.9-7.5,4.3L280.9,98L280.9,98z"/>
<path class="st3" d="M122,52l-12.1,1.6L91.6,39.6l8.5-3.8l-4.2-10.7c0,0-30.1-7.1-35.1,0.3C47.5,45,77.6,56.3,97.8,77.5
	c0,0,18.1,32.3,42,53.8c0,0,21.6-15,36-34.3l-15.1-39.2c0,0,11.6-46.2,6.2-51.1s-40.7,9.9-40.7,9.9l6.7,8.7l13.2-0.3l-2.3,12.7
	C143.8,37.8,128.2,43.9,122,52z"/>
<path class="st4" d="M94,20.6c1.6-1.5,4-1.9,6.1-1c-1-1.5-1.1-3.5-0.2-5.1c0.9-1.6,2.1-2.9,3.5-4c1.9-1.7,4-3.1,6.4-4
	c6.2-2.2,13,0.7,18.2,4.7c2.8,2.1,6.1,5.4,6.3,9.1c0.1,3.5-3.1,8.3-4.8,11.2c-2.5,4.2-5.6,8.2-9.7,10.7c-10.9,6.8-24,0-27.5-11.7
	c-0.8-2.8-1-5.9,0.5-8.4C93.1,21.6,93.5,21.1,94,20.6z"/>
<path class="st0" d="M110.5,45.5c-2.2,0-4.3-0.4-6.3-1.2c-6-2.4-10.6-7.4-12.4-13.6c-1-3.4-0.8-6.5,0.5-8.8c0.4-0.6,0.9-1.2,1.4-1.7
	l0,0c1.5-1.3,3.4-1.9,5.3-1.5c-0.5-1.5-0.3-3.1,0.4-4.4c0.9-1.7,2.1-3.1,3.6-4.2c1.9-1.7,4.1-3.1,6.5-4.1c5.4-1.9,12.2-0.2,18.7,4.8
	c2.9,2.2,6.3,5.6,6.4,9.5c0.1,3.1-2.3,7.2-4.1,10.2c-0.3,0.5-0.5,0.9-0.8,1.3c-3,5.1-6.2,8.6-9.8,10.9
	C117.2,44.5,113.9,45.5,110.5,45.5z M94.4,21c-0.5,0.4-0.9,0.9-1.2,1.4c-1.6,2.8-1,6.2-0.4,8c1.7,5.9,6.1,10.7,11.8,13
	c4.9,1.9,10.5,1.3,14.9-1.5c3.5-2.2,6.6-5.7,9.5-10.6c0.2-0.4,0.5-0.8,0.8-1.3c1.7-2.9,4.1-6.8,4-9.6c-0.1-3.5-3.4-6.7-6.1-8.8
	C124.8,9.4,117.2,4.5,110,7c-2.3,0.9-4.4,2.2-6.2,3.9c-1.4,1-2.6,2.3-3.4,3.9c-0.8,1.5-0.7,3.2,0.2,4.6c0.2,0.2,0.1,0.5-0.1,0.7
	c-0.2,0.1-0.4,0.1-0.5,0C98,19.3,95.8,19.6,94.4,21L94.4,21z"/>
<path class="st1" d="M134.6,45.9l5.2,8.3c0,0,1.2,6.6-7.7,8.6s-12.8-3.9-12.8-3.9l-11.3-16.7c0,0,4.3-6.1-3.8-18
	c7.9-0.5,15.5-3,22-7.4c0,0,10.5,12,12.6,18.7S134.6,45.9,134.6,45.9z"/>
<path class="st0" d="M128.5,63.6c-3.8,0.1-7.4-1.6-9.7-4.6l-11.3-16.7c-0.1-0.2-0.1-0.4,0-0.6c0-0.1,4-6-3.8-17.4
	c-0.1-0.2-0.1-0.4,0-0.5c0.1-0.2,0.3-0.3,0.4-0.3c7.8-0.5,15.3-3,21.8-7.3c0.2-0.1,0.5-0.1,0.7,0.1c0.4,0.5,10.6,12.2,12.7,18.9
	c1.9,5.9-2.6,9.7-4,10.8l5,7.9c0,0.1,0.1,0.1,0.1,0.2c0,0.1,1.1,7-8.1,9.2C131,63.5,129.7,63.6,128.5,63.6z M108.5,42.1l11.1,16.4
	c0.2,0.2,3.9,5.6,12.3,3.7c7.8-1.8,7.5-7.1,7.4-7.9l-5.2-8.1c-0.1-0.1-0.1-0.3-0.1-0.4c0-0.1,0.1-0.2,0.2-0.3c0.2-0.2,6-3.7,4-9.9
	c-1.9-5.8-10.5-16.2-12.2-18.2c-6.3,4.1-13.5,6.6-21,7.2C111.7,34.8,109.3,40.7,108.5,42.1z"/>
<path class="st1" d="M114.9,45.5c-1.2,1.4-2.9,2.3-4.8,2.5c-2.6,0.1-5.2-1.1-6.7-3.3c-0.6-0.8-1-1.6-1.3-2.6c-0.2-1,0-1.9,0.6-2.7
	c0.8-0.8,1.9-1.4,3.1-1.5c1.7-0.4,2.3,0.2,3.8,0.6c-0.1,0-0.4-0.2-0.6-0.3"/>
<path class="st0" d="M109.5,48.5c-2.6-0.1-5-1.4-6.5-3.5c-0.7-0.8-1.1-1.8-1.4-2.8c-0.2-1.1,0-2.2,0.6-3.1c0.9-0.9,2.1-1.5,3.3-1.7
	c1-0.3,2-0.2,2.9,0.3l0.3,0.1c0.1,0,0.1,0,0.2,0c0.2,0,0.3,0.1,0.4,0.2l0.1,0.1l0,0c0.3,0.1,0.5,0.3,0.4,0.6
	c-0.1,0.3-0.3,0.5-0.6,0.4h-0.1c-0.4-0.1-0.8-0.2-1.1-0.4c-0.7-0.4-1.6-0.4-2.3-0.2c-1,0.1-2,0.6-2.8,1.3c-0.5,0.7-0.7,1.5-0.5,2.3
	c0.2,0.9,0.6,1.7,1.2,2.4c1.4,2,3.8,3.2,6.2,3.1c1.8-0.2,3.4-1.1,4.5-2.4c0.2-0.2,0.5-0.2,0.7-0.1c0,0,0,0,0,0
	c0.2,0.2,0.2,0.5,0.1,0.7c0,0,0,0,0,0c-1.3,1.5-3.1,2.5-5.1,2.7C109.9,48.5,109.7,48.5,109.5,48.5z"/>
<path class="st0" d="M139,52.9c-2.8,1.1-5.9,1.1-8.8,0.1c-5.2-1.6-6.3-4.6-6.3-4.6s6,1.1,10.7-2.6L139,52.9z"/>
<path class="st0" d="M134.6,54.2c-1.5,0-3.1-0.2-4.6-0.7c-5.3-1.7-6.6-4.8-6.6-4.9c-0.1-0.2,0-0.4,0.1-0.5c0.1-0.1,0.3-0.2,0.5-0.2
	c0.1,0,5.8,1,10.3-2.4c0.1-0.1,0.3-0.1,0.4-0.1c0.1,0,0.3,0.1,0.3,0.2l4.4,7c0.1,0.1,0.1,0.3,0.1,0.4c0,0.1-0.1,0.3-0.3,0.3
	C137.7,53.9,136.2,54.2,134.6,54.2z M124.8,49c1.4,1.7,3.4,2.9,5.5,3.5c2.6,0.9,5.3,0.9,7.9,0.1l-3.8-6
	C131.6,48.5,128.2,49.3,124.8,49L124.8,49z"/>
<path class="st1" d="M122,27.9c0,0,7.4,3.9,7,5.5c-0.4,1.6-3.5,2.4-3.5,2.4"/>
<path class="st0" d="M125.5,36.3c-0.2,0-0.4-0.2-0.5-0.4c-0.1-0.3,0.1-0.5,0.4-0.6c0.7-0.2,2.9-1,3.1-2c0.1-0.6-3.1-3-6.7-4.9
	c-0.2-0.1-0.3-0.4-0.2-0.7c0,0,0,0,0,0c0.1-0.2,0.4-0.3,0.7-0.2c2.3,1.2,7.7,4.3,7.3,6c-0.4,1.8-3.5,2.6-3.9,2.7L125.5,36.3z"/>
<ellipse transform="matrix(-0.4011 -0.916 0.916 -0.4011 136.0028 149.2994)" class="st0" cx="116.8" cy="30.2" rx="1.6" ry="1.1"/>
<ellipse transform="matrix(-0.6533 -0.7571 0.7571 -0.6533 189.9755 137.0712)" class="st0" cx="126.4" cy="25" rx="1.6" ry="1.1"/>
<path class="st0" d="M129.9,44.1c-1.1,0-2.1-0.3-3.1-0.7c-1.4-0.7-2.7-1.8-3.6-3.1l0,0c-0.1-0.1-0.1-0.3-0.1-0.4
	c0.1-0.3,0.1-0.4,9.3-5.5c0.2-0.1,0.5-0.1,0.6,0.1c0.1,0.1,2.7,3.3,2,6.3c-0.4,1.2-1.2,2.2-2.4,2.8
	C131.7,43.9,130.8,44.1,129.9,44.1z M124.3,40.1c0.8,1,1.8,1.8,2.9,2.4c1.5,0.8,3.3,0.8,4.9,0.1c0.9-0.4,1.6-1.1,1.9-2
	c0.4-2.1-0.9-4.3-1.6-5.2C129.6,36.9,125.6,39.2,124.3,40.1L124.3,40.1z"/>
<path class="st0" d="M127,42.9c3.6,1.7,7-0.1,7.5-2.3c-1.2-0.9-2.7-1.2-4.1-0.9C128.9,40.4,127.7,41.5,127,42.9z"/>
<path class="st0" d="M129.9,44.1c-1.1,0-2.1-0.3-3.1-0.7c-0.2-0.1-0.4-0.4-0.2-0.7c0,0,0,0,0,0c0.8-1.5,2.1-2.7,3.6-3.3
	c1.3-0.5,2.8-0.2,4.6,0.9c0.2,0.1,0.3,0.3,0.2,0.5c-0.4,1.2-1.2,2.2-2.4,2.7C131.7,43.9,130.8,44.1,129.9,44.1z M127.7,42.7
	c1.4,0.6,3,0.6,4.4-0.1c0.8-0.3,1.4-1,1.8-1.7c-1-0.7-2.2-0.9-3.4-0.6C129.4,40.7,128.4,41.6,127.7,42.7z"/>
<path class="st0" d="M175.8,97.1c0,0,19.1-33.3,20.5-33.9s30.2,18,30.2,18l-19.4,41.1C207.1,122.3,172.3,115.2,175.8,97.1z"/>
<path class="st0" d="M207.1,122.8H207c-5.9-1.3-11.6-3.3-17.1-5.9c-11-5.4-16.1-12.3-14.6-19.9c0-0.1,0-0.1,0.1-0.2
	c4.5-7.8,19.3-33.5,20.7-34.1s17.4,9.5,30.7,18.1c0.2,0.1,0.3,0.4,0.2,0.6l-19.4,41.1C207.5,122.7,207.3,122.8,207.1,122.8z
	 M176.3,97.3c-3,16.3,26.8,23.6,30.6,24.5l19-40.4c-10.6-6.8-27.4-17.4-29.4-17.8C195.1,65,183.7,84.4,176.3,97.3z"/>
<path class="st1" d="M210.7,97.4c0,0,43.1-18.1,49-12.8s12.4,84.4,14,85.2c7,3.2,19.4,8.1,19.8,8.1c2.3,0.1,13.2,0.9,9.1,5.4
	c-3.4,3.7-8.1,2.5-12.6,2.7c-5.9,0.3-7.2,0.5-13.2,0.7c-5.4,0.1-10.8,0.2-16.2,0.3c-3.2,0-6-2-6.9-5.1l-14.5-66.1l-18.7,9.2
	L210.7,97.4z"/>
<path class="st0" d="M260.6,187.5c-3.3,0-6.3-2.2-7.3-5.4L239,116.7l-18.1,8.9c-0.1,0.1-0.3,0.1-0.4,0c-0.1-0.1-0.2-0.2-0.3-0.3
	l-9.9-27.7c-0.1-0.3,0-0.5,0.3-0.6c1.8-0.8,43.4-18.2,49.5-12.7c3.6,3.3,7.2,31.2,10.9,62.1c1.3,11.2,2.6,21.8,3.1,23.1
	c7,3.1,18.8,7.8,19.6,8c2.1,0.1,9.1,0.6,10.3,3.3c0.4,0.9,0.1,1.9-0.9,3c-2.7,3-6.4,3-9.8,2.9c-1,0-2.1,0-3.1,0
	c-2,0.1-3.5,0.2-4.8,0.3c-2.6,0.2-4.4,0.3-8.3,0.4c-5.5,0.1-11,0.3-16.2,0.3L260.6,187.5z M239.3,115.4c0.2,0,0.4,0.2,0.5,0.4
	l14.5,66.1c0.8,2.8,3.4,4.7,6.3,4.7h0.1c5.2-0.1,10.7-0.2,16.2-0.3c3.9-0.1,5.7-0.2,8.3-0.4c1.3-0.1,2.8-0.2,4.9-0.3
	c1-0.1,2.1,0,3.2,0c3.4,0.1,6.6,0.1,9.1-2.6c0.7-0.8,0.9-1.4,0.7-1.9c-0.7-1.6-5.4-2.5-9.4-2.7c-0.7,0-13.7-5.3-20-8.1
	c-0.7-0.3-1.2-3.4-3.6-23.8c-2.7-23.1-6.9-58.1-10.5-61.4c-4.6-4.1-35.8,7.6-48,12.7l9.6,26.7l18.2-8.9
	C239.2,115.4,239.3,115.4,239.3,115.4L239.3,115.4z"/>
<path class="st0" d="M139.8,131.4c0,0,18.5,22.5,38.8,22.5s50.7-28.5,50.7-28.5l-16-34.6l-37.4,6.3
	C175.9,97.1,143.9,123.2,139.8,131.4z"/>
<path class="st0" d="M178.6,154.4c-10.6,0-20.7-6.2-27.3-11.4c-4.3-3.4-8.3-7.2-11.9-11.3c-0.1-0.1-0.2-0.4-0.1-0.5
	c4-8.2,34.8-33.4,36.1-34.4c0.1-0.1,0.1-0.1,0.2-0.1l37.4-6.3c0.2,0,0.4,0.1,0.5,0.3l16,34.6c0.1,0.2,0.1,0.4-0.1,0.6
	c-5.6,5.1-11.6,9.9-17.8,14.3C198.3,149.5,187.1,154.4,178.6,154.4z M140.4,131.3c2.1,2.5,19.5,22.1,38.2,22.1
	c18.9,0,47-25.3,50.1-28.1l-15.7-33.9L176,97.6C174.1,99.2,144.8,123.2,140.4,131.3z"/>
<path class="st1" d="M171.1,106.4c-0.3,0-0.5-0.1-0.6-0.4s0.1-0.5,0.4-0.6c18.4-7.5,41.9-15.1,42.1-15.1c0.3-0.1,0.5,0,0.6,0.3
	c0,0,0,0,0,0c0.1,0.3-0.1,0.5-0.3,0.6c-0.2,0.1-23.7,7.6-42.1,15.1C171.3,106.4,171.2,106.4,171.1,106.4z"/>
<path class="st1" d="M300.6,63.2c0,0-20.9,14.9-25.5,25"/>
<path class="st0" d="M275.2,88.6c-0.1,0-0.1,0-0.2,0c-0.3-0.1-0.4-0.4-0.3-0.7c4.6-10.1,24.8-24.6,25.6-25.2
	c0.2-0.2,0.5-0.1,0.7,0.1c0.2,0.2,0.1,0.5-0.1,0.7c-0.2,0.2-20.8,14.9-25.3,24.8C275.6,88.5,275.4,88.6,275.2,88.6z"/>
<path class="st0" d="M112.9,58.4c-0.2,0-0.3-0.1-0.4-0.2c-8.6-11.8-29.1-23-29.3-23.1c-0.2-0.1-0.3-0.5-0.2-0.7
	c0.1-0.2,0.4-0.3,0.6-0.2c0.2,0.1,20.9,11.3,29.6,23.4c0.2,0.2,0.1,0.5-0.1,0.7c0,0,0,0,0,0C113.1,58.4,113,58.4,112.9,58.4z"/>
<path class="st0" d="M146.1,25.6L146.1,25.6c-0.4-0.1-0.5-0.3-0.5-0.6c0.5-3.2,1.9-6.2,4.2-8.6c0.2-0.2,0.5-0.2,0.7,0
	c0.2,0.2,0.2,0.5,0,0.7c0,0,0,0-0.1,0c-2.1,2.3-3.4,5.1-3.9,8.1C146.6,25.4,146.4,25.5,146.1,25.6z"/>
<ellipse class="st5" cx="50.5" cy="133.9" rx="45.7" ry="12.6"/>
<path class="st0" d="M50.5,147c-25.9,0-46.2-5.7-46.2-13.1c0-7.3,20.3-13.1,46.2-13.1s46.2,5.7,46.2,13.1
	C96.7,141.2,76.4,147,50.5,147z M50.5,121.8c-24.5,0-45.2,5.5-45.2,12.1c0,6.5,20.7,12.1,45.2,12.1s45.2-5.5,45.2-12.1
	C95.7,127.4,75,121.8,50.5,121.8z"/>
<path class="st0" d="M68,193.9c-0.8,0-1.5-0.7-1.5-1.5c0-3.2-9.4-7.2-16-9.1c-6.6,1.9-16,5.9-16,9.1c0,0.8-0.7,1.5-1.5,1.5
	s-1.5-0.7-1.5-1.5c0-6.7,15.5-11.2,18.7-12.1c0.3-0.1,0.5-0.1,0.8,0c3.1,0.8,18.6,5.4,18.6,12.1C69.6,193.2,69,193.9,68,193.9
	C68.1,193.9,68.1,193.9,68,193.9z"/>
<circle class="st1" cx="24.5" cy="97.2" r="6.9"/>
<path class="st6" d="M24.5,104.6c-4.1,0-7.4-3.3-7.4-7.4s3.3-7.4,7.4-7.4c4.1,0,7.4,3.3,7.4,7.4C32,101.3,28.7,104.6,24.5,104.6
	C24.5,104.6,24.5,104.6,24.5,104.6z"/>
<path class="st6" d="M24.5,90.8c-3.5,0-6.4,2.9-6.4,6.4c0,3.5,2.9,6.4,6.4,6.4c3.5,0,6.4-2.9,6.4-6.4c0,0,0,0,0,0
	C30.9,93.6,28.1,90.8,24.5,90.8z"/>
<polygon class="st1" points="26.5,133.8 44.7,133.8 46.9,97.5 24.4,97.5 "/>
<path class="st0" d="M44.7,134.3H26.5c-0.3,0-0.5-0.2-0.5-0.5l-2.2-36.2c0-0.3,0.2-0.5,0.5-0.5c0,0,0,0,0,0h22.6
	c0.1,0,0.3,0,0.4,0.1c0.1,0.1,0.1,0.2,0.1,0.4l-2.1,36.2C45.3,134.1,45,134.3,44.7,134.3C44.8,134.3,44.7,134.3,44.7,134.3z
	 M27,133.3h17.3l2.1-35.2H24.9L27,133.3z"/>
<polygon class="st7" points="29.2,130.9 42.1,130.9 43.2,111.9 28.1,111.9 "/>
<path class="st0" d="M39.2,130c-0.2,0-0.5-0.2-0.5-0.4c-0.2-0.7,2-30.6,3-43.4c0-0.1,0.1-0.3,0.2-0.3l9.1-8.2c0.2-0.2,0.5-0.2,0.7,0
	s0.2,0.5,0,0.7l-8.9,8c-0.9,11.8-3.1,41.8-3,43c0.1,0.3-0.1,0.5-0.4,0.6c0,0,0,0,0,0L39.2,130z"/>
<polygon class="st1" points="46.9,136.3 46.3,141.3 76.2,142.3 86.6,126.2 86.4,120 "/>
<path class="st0" d="M76.3,142.8L76.3,142.8l-30-1c-0.1,0-0.3-0.1-0.4-0.2c-0.1-0.1-0.1-0.2-0.1-0.4l0.6-5c0-0.2,0.1-0.3,0.3-0.4
	l39.4-16.3c0.1-0.1,0.3-0.1,0.5,0c0.1,0.1,0.2,0.2,0.2,0.4l0.3,6.3c0,0.1,0,0.2-0.1,0.3l-10.4,16.1
	C76.6,142.7,76.5,142.8,76.3,142.8z M46.9,140.8l29.1,1l10.1-15.7l-0.2-5.4l-38.6,15.9L46.9,140.8z"/>
<polygon class="st8" points="59.2,118.6 46.9,136.3 75.6,137.1 86.4,120 "/>
<path class="st0" d="M75.6,137.6L75.6,137.6l-28.7-0.9c-0.2,0-0.3-0.1-0.4-0.3c-0.1-0.2-0.1-0.4,0-0.5l12.2-17.6
	c0.1-0.1,0.3-0.2,0.4-0.2l27.2,1.3c0.3,0,0.5,0.2,0.5,0.5c0,0.1,0,0.2-0.1,0.2L76,137.4C75.9,137.5,75.8,137.6,75.6,137.6z
	 M47.9,135.8l27.5,0.8l10.1-16.2l-26.1-1.3L47.9,135.8z"/>
<line class="st9" x1="75.6" y1="137.1" x2="76.2" y2="142.3"/>
<path class="st0" d="M76.3,142.8c-0.3,0-0.5-0.2-0.5-0.4l-0.6-5.2c0-0.3,0.2-0.5,0.4-0.6c0.3,0,0.5,0.2,0.6,0.4l0.6,5.2
	C76.8,142.5,76.6,142.8,76.3,142.8C76.3,142.8,76.3,142.8,76.3,142.8L76.3,142.8z"/>
</svg>
