<?xml version="1.0" encoding="utf-8"?>
<!-- Generator: Adobe Illustrator 19.0.0, SVG Export Plug-In . SVG Version: 6.00 Build 0)  -->
<svg version="1.1" id="Layer_1" xmlns="http://www.w3.org/2000/svg" xmlns:xlink="http://www.w3.org/1999/xlink" x="0px" y="0px" viewBox="0 0 158.5 44.6666679" style="enable-background:new 0 0 158.5 44.6666679;" xml:space="preserve">
  <g id="XMLID_3_">
    <!-- <path id="XMLID_2_" style="fill:none;stroke:#FBBB1A;stroke-width:4;" d="M2.4691606,36.2731628l25.534071-6.2122612
		l24.0844994,8.7501602l42.6603012-11.836319l30.6278,8.0666199l29.6100082-4.9855309"/>
	<path id="XMLID_43_" style="fill:none;stroke:#4CC2ED;stroke-width:3;" d="M1.8267007,28.8538342l25.534029-6.2122402
		l24.0845032,8.7501411l42.6602974-11.8362904l30.6282959,8.0665894l29.6100159-4.9854984"/> -->
    <g id="XMLID_1_">
      <path id="XMLID_4_" d="M14.862483,29.5436192c0,0.7558594,0.1972656,1.3544922,0.5913086,1.7978516
			s0.9521494,0.665041,1.6748056,0.665041c0.9853516,0,1.7978516-0.2871113,2.4384766-0.86133
			c0.6401367-0.5742188,1.3212891-1.3876953,2.0444336-2.4384766c0.5249023-0.7558594,0.9521484-1.296875,1.2807617-1.6259766
			c0.3276367-0.328125,0.7055664-0.4921875,1.1328125-0.4921875c0.8535156,0,1.4609375,0.1064453,1.8227539,0.3203125
			c0.3608398,0.2138672,0.5419922,0.6484375,0.5419922,1.3046875c0,0.2958984-0.0332031,0.6494141-0.0986328,1.0595703
			c-0.0664063,0.4111328-0.1479492,0.7138672-0.246582,0.9111328c-0.7880859,1.6748047-2.0771484,3.1201191-3.8666992,4.3349628
			c-1.7905273,1.2148438-3.8178711,1.8222656-6.0839844,1.8222656s-3.9736338-0.5498047-5.1230478-1.6494141
			c-1.1499023-1.1005859-1.7241211-2.6679688-1.7241211-4.70508c0-0.2949219,0.1479492-1.0664063,0.4433594-2.3154297
			c0.2954102-1.2470703,0.6728516-2.7412109,1.1328125-4.4824219l1.3793945-5.6162109L9.197444,17.8190098
			c-0.394043,0-0.6894531-0.1474609-0.8867188-0.4433594c-0.1967773-0.2954102-0.2954102-0.65625-0.2954102-1.0834961
			c0-0.8203115,0.2954102-1.6416006,0.8867188-2.4628897c0.0654297-0.0986328,0.394043-0.1972656,0.9853516-0.2958984
			c0.5908203-0.0986328,1.3129883-0.1967773,2.1674805-0.2954102l1.3295898-0.1479492l1.675293-7.191895
			c0.3276367-0.8535156,0.8286133-1.5185547,1.5024424-1.9951172c0.6723633-0.4755859,1.3051758-0.7143555,1.8964844-0.7143555
			c0.65625,0,1.2143555,0.1972656,1.6748047,0.5913086c0.4594727,0.394043,0.7055664,0.8540039,0.7387695,1.3789063
			l-1.7734375,7.3896489c1.2807617-0.1640625,2.4707031-0.3037109,3.5717773-0.4189453
			c1.0996094-0.1147461,1.9619141-0.1723633,2.5859375-0.1723633c1.2475586,0,1.8720703,0.7226563,1.8720703,2.1674805
			c0,0.5585938-0.2387695,1.059082-0.7143555,1.5024414c-0.4765625,0.4433584-0.9936523,0.7143545-1.5517578,0.8129873
			l-6.8964844,0.6894531L14.862483,29.5436192z" />
      <path id="XMLID_6_" d="M34.6408043,34.2486992c-0.1157227,0.5742188-0.394043,0.9765625-0.8374023,1.2060547
			s-1.1416016,0.3457031-2.09375,0.3457031c-1.0839844,0-1.8720703-0.1162109-2.3647461-0.3457031
			s-0.7387695-0.7216797-0.7387695-1.4775391c0.0986328-0.3935547,0.8041992-3.2021503,2.1181641-8.42383
			c0.9521484-4.0390625,1.6582031-6.8798828,2.1181641-8.5224609c0.4926758-2.331542,1.0668945-3.8666983,1.7241211-4.6059561
			c0.6567383-0.7387695,1.4116211-1.1083984,2.2661133-1.1083984c1.1494141,0,1.8964844,0.1650391,2.2412109,0.4926758
			c0.3452148,0.3286133,0.5175781,0.7558594,0.5175781,1.2807617l-0.5913086,2.9067383
			c1.0507813-1.2807617,2.2739258-2.340332,3.6699219-3.1777344c1.3955078-0.8374023,2.6357422-1.2558594,3.7192383-1.2558594
			c1.4116211,0,2.512207,0.2460938,3.3007813,0.7387695c0.7880859,0.4926758,1.1821289,1.1328125,1.1821289,1.9213867
			c0,0.5908203-0.3696289,1.059082-1.1083984,1.4038086s-1.699707,0.5664053-2.8818359,0.6650381
			c-1.7734375,0.1645508-3.5883789,0.9360352-5.4433594,2.315918c-1.855957,1.3789063-3.2436523,3.0048828-4.1625977,4.8769531
			l-2.4135742,9.6054707C34.8292809,33.2877617,34.7550621,33.6744804,34.6408043,34.2486992z" />
      <path id="XMLID_8_" d="M56.1920738,30.4303379c-0.1318359,0.5263672-0.1972656,1.1005859-0.1972656,1.7246113l0.0493164,1.3789063
			c0,0.5585938-0.1723633,0.953125-0.5170898,1.1826172s-1.0761719,0.3603516-2.1918945,0.3935547
			c-1.0839844,0-1.9052734-0.1152344-2.4633789-0.3447266c-0.5585938-0.2294922-0.8374023-0.7216797-0.8374023-1.4775391
			c0-0.3613281,0.4189453-2.2822285,1.2563477-5.7636738c0.8374023-3.4804688,1.9780273-8.0126953,3.4233398-13.5966787
			l-1.1328125-1.4775391c-0.0986328-0.0986328-0.1479492-0.2133789-0.1479492-0.3447266
			c0-0.328125,0.3613281-0.5991211,1.0839844-0.8129883c0.7216797-0.2133789,1.7241211-0.3203125,3.0048828-0.3203125
			c1.1162109,0,1.8305664,0.3203125,2.1430664,0.9604492c0.3115234,0.640625,0.4838867,1.4702148,0.5170898,2.487793
			C58.4410973,21.5143223,57.1110191,26.8512363,56.1920738,30.4303379z M55.9703941,2.9913735
			c0.640625-0.7880859,1.534668-1.1821288,2.6845703-1.1821288c1.2148438,0,2.2739258,0.3779296,3.1777344,1.1333007
			c0.902832,0.7558594,1.3544922,1.609375,1.3544922,2.5615234c0,0.9526367-0.4604492,1.7734375-1.3793945,2.4628906
			c-0.9199219,0.6894536-1.9873047,1.0346684-3.2021484,1.0346684c-1.1821289,0-2.0771484-0.3032227-2.6845703-0.9116211
			c-0.6079102-0.6069341-0.9111328-1.4038091-0.9111328-2.3891606C55.0099449,4.6832681,55.3297691,3.7799478,55.9703941,2.9913735z
			" />
      <path id="XMLID_11_" d="M67.2750778,37.6715508c-0.7558594,3.0546875-1.2978516,5.0253906-1.6254883,5.9121094
			c-0.1318359,0.3603516-0.5258789,0.6318359-1.1826172,0.8125c-0.6572227,0.1796875-1.1328087,0.2705078-1.4282188,0.2705078
			c-1.4121094,0-2.1679688-0.9033203-2.2661133-2.7089844c0.5253906-3.7119141,1.4360352-8.5302734,2.7338867-14.4580097
			c1.2968712-5.9277344,2.4877892-11.0107422,3.5712852-15.2470694c0.0322266-0.4926758,0.3203125-0.9765625,0.8623047-1.453125
			c0.5415039-0.4755859,1.0258789-0.7143555,1.453125-0.7143555c0.2954102,0,0.5825195-0.0244141,0.8618164-0.0737305
			c0.2788086-0.0493164,0.5336914-0.0737305,0.7636719-0.0737305c0.4262695,0,0.7387695,0.1313477,0.9360352,0.394043
			c0.1972656,0.2631836,0.2954102,0.7719727,0.2954102,1.5268555c0,0.8212891-0.1152344,1.9052734-0.3447266,3.2514648
			c0.8208008-1.2807617,1.7241211-2.2329102,2.7094727-2.8574219c0.9853516-0.6235352,1.9375-0.9360352,2.8569336-0.9360352
			c1.8393555,0,3.4643555,0.4848633,4.8774414,1.4536133c1.4111328,0.96875,2.4951172,2.2583008,3.2509766,3.8666983
			c0.7548828,1.6098633,1.1328125,3.3500977,1.1328125,5.222168c0,2.265625-0.4921875,4.4667969-1.4775391,6.6005859
			c-0.9853516,2.1357422-2.4140625,3.8759785-4.2861328,5.2216816c-1.8720703,1.3466797-4.0390625,2.0205078-6.5024414,2.0205078
			c-0.8544922,0-1.9541016-0.2880859-3.300293-0.8623047c-1.347168-0.5742188-2.25-1.2558594-2.7094727-2.0449219
			C68.4240036,32.9918633,68.0299606,34.6178398,67.2750778,37.6715508z M69.7872849,27.376627
			c0.0322266,0.8212891,0.3115234,1.5439453,0.8374023,2.1669922c0.5249023,0.6240234,1.1328125,1.1083984,1.8227539,1.453125
			c0.6894531,0.3447266,1.2636719,0.5175781,1.7241211,0.5175781c1.3461914,0,2.5532227-0.4755859,3.6206055-1.4287109
			c1.0668945-0.9521484,1.8969727-2.1591797,2.487793-3.6201172s0.8867188-2.9472656,0.8867188-4.4589844
			c0-4.2036133-1.5273438-6.3056631-4.581543-6.3056631c-1.4775391,0-2.6435547,0.5097647-3.4975586,1.5273428
			c-0.8540039,1.0185547-1.609375,2.7099609-2.265625,5.0742188l-0.9853516,4.2363281
			C69.8033981,26.736002,69.7872849,27.0152988,69.7872849,27.376627z" />
      <path id="XMLID_14_" d="M103.7282028,15.6022139c-1.4775391,0-2.9560547,0.2958984-4.4335938,0.8867178
			c-1.4775391,0.5913086-2.2167969,1.347168-2.2167969,2.2666016c0,0.6572266,0.2958984,1.1826172,0.8867188,1.5761719
			c0.5908203,0.3945313,1.5273438,0.8378906,2.8076172,1.3300781c1.3798828,0.5595703,2.4960938,1.0839844,3.3496094,1.5761719
			c0.8544922,0.4931641,1.6015625,1.2070313,2.2421875,2.1435547c0.6396484,0.9355469,0.9599609,2.1259766,0.9599609,3.5712891
			c0,2.3642578-0.9775391,4.1796894-2.9306641,5.4433613c-1.9541016,1.2636719-4.5732422,1.8964844-7.8574219,1.8964844
			c-1.609375,0-3.1035156-0.2460938-4.4824219-0.7392578c-1.3798828-0.4921875-2.4716797-1.1240234-3.2763672-1.8964844
			c-0.8046875-0.7714844-1.2392578-1.5341797-1.3046875-2.290041c0-0.7880859,0.3447266-1.4365234,1.0341797-1.9462891
			c0.6894531-0.5087891,1.6582031-0.8447266,2.90625-1.0097656c0.0322266,0.6572266,0.3769531,1.2734375,1.0341797,1.8476563
			s1.4365234,1.0341797,2.3398438,1.3789063s1.6826172,0.51758,2.3398438,0.51758
			c1.1162109,0,2.1347656-0.3037128,3.0546875-0.9111347c0.9189453-0.6074219,1.3789063-1.3222656,1.3789063-2.1435547
			c0-1.5097656-1.4609375-2.7089844-4.3837891-3.5957031c-1.8720703-0.5585938-3.3085938-1.4453125-4.3105469-2.6601563
			s-1.5019531-2.4951172-1.5019531-3.8427734c0-2.6601563,1.2060547-4.572753,3.6201172-5.7392569
			c2.4140625-1.1650391,5.4931641-1.7485352,9.2363281-1.7485352c2.1015625,0,3.7275391,0.2460938,4.8769531,0.7387695
			s1.7246094,1.347168,1.7246094,2.5615234c0,0.8212891-0.3046875,1.5439444-0.9111328,2.1674795
			c-0.6083984,0.6245117-1.4707031,0.9360352-2.5869141,0.9360352c-0.9853516,0-1.6171875-0.0737305-1.8964844-0.2216797
			c-0.2792969-0.1474609-0.4355469-0.4018555-0.4677734-0.7636719c0-0.3276367,0.0820313-0.6723633,0.2460938-1.0341787
			C104.8121872,15.7008467,104.3190231,15.6022139,103.7282028,15.6022139z" />
      <path id="XMLID_16_" d="M116.9791794,13.9274092l-0.2949219-1.8222656c0-0.3613281,0.2128906-0.640625,0.6396484-0.8378906
			c0.4267578-0.1967773,1.2480469-0.2954102,2.4628906-0.2954102c0.9521484,0,1.6503906,0.2631836,2.09375,0.7880859
			c0.4433594,0.5258789,0.6650391,1.1499023,0.6650391,1.8720703c0,0.1972656-0.0332031,0.4604492-0.0986328,0.7880859
			l-4.3837891,17.7348633l0.2958984,1.8222656c0,0.3623047-0.2148438,0.640625-0.640625,0.8378906
			c-0.4277344,0.1962891-1.2490234,0.2949219-2.4628906,0.2949219c-1.0839844,0-1.7910156-0.3203125-2.1181641-0.9599609
			c-0.3291016-0.640625-0.5097656-1.4697266-0.5419922-2.4882832
			C112.5953903,31.0709629,114.0563278,25.1598301,116.9791794,13.9274092z M118.2360153,2.9913735
			c0.6396484-0.7880859,1.5341797-1.1821288,2.6845703-1.1821288c1.2138672,0,2.2734375,0.3779296,3.1767578,1.1333007
			c0.9033203,0.7558594,1.3544922,1.609375,1.3544922,2.5615234c0,0.9526367-0.4599609,1.7734375-1.3789063,2.4628906
			c-0.9199219,0.6894536-1.9873047,1.0346684-3.2021484,1.0346684c-1.1816406,0-2.0771484-0.3032227-2.6845703-0.9116211
			c-0.6083984-0.6069341-0.9111328-1.4038091-0.9111328-2.3891606
			C117.2750778,4.6832681,117.5953903,3.7799478,118.2360153,2.9913735z" />
      <path id="XMLID_19_" d="M127.1998825,34.0758476c-1.4951172-1.28125-2.2412109-2.9882832-2.2412109-5.1230488
			c0-3.1855469,0.65625-6.0839844,1.9697266-8.6943359c1.3134842-2.6118164,3.1357498-4.6635733,5.4687576-6.1586905
			c2.3310547-1.4936523,4.9912109-2.2412109,7.9794922-2.2412109c1.8720703,0,3.4404297,0.5258789,4.7050781,1.5761719
			c1.2636719,1.0517578,1.8964844,2.6108389,1.8964844,4.6801748c0,2.2011719-0.7148438,3.9248047-2.1425781,5.1728516
			c-1.4287109,1.2480469-3.2851563,2.1425781-5.5673828,2.6845703s-5.1474609,0.9775391-8.5957031,1.3056641
			c-0.0986328,0.4267578-0.1474609,0.9355469-0.1474609,1.5273438c0,0.9189453,0.3935547,1.625,1.1816406,2.1181641
			c0.7880859,0.4921875,1.8886719,0.7382813,3.3007813,0.7382813c1.0175781,0,2.2080078-0.2128906,3.5712891-0.6396484
			c1.3623047-0.4267578,2.4052734-1.1337891,3.1279297-2.1191406c0.4267578-0.5576172,0.9277344-1.0009766,1.5029297-1.3300781
			c0.5742188-0.3271484,1.140625-0.4921875,1.6992188-0.4921875c0.5253906,0,0.9609375,0.1728516,1.3056641,0.5175781
			s0.5175781,0.8613281,0.5175781,1.5517578c-0.3623047,1.0507813-1.1171875,2.1103516-2.2666016,3.1767597
			c-1.1494141,1.0673828-2.6025391,1.9462891-4.359375,2.6357422s-3.6865234,1.0341797-5.7880859,1.0341797
			C131.0670776,35.9967461,128.6940308,35.3570976,127.1998825,34.0758476z M138.4069214,21.5387363
			c2.1992188-0.7714844,3.2998047-2.1259766,3.2998047-4.0644531c0-0.4594727-0.2138672-0.8125-0.6396484-1.059082
			c-0.4277344-0.2460938-0.8867188-0.3696289-1.3798828-0.3696289c-0.953125,0-1.9453125,0.3535156-2.9804688,1.0595703
			c-1.0341797,0.706543-1.9785156,1.5761719-2.8320313,2.6113281c-0.8544922,1.0341797-1.4951172,2.0439453-1.9208984,3.0292969
			C134.0543823,22.713541,136.2057495,22.3111973,138.4069214,21.5387363z" />
    </g>
  </g>
</svg>