<?xml version="1.0" encoding="utf-8"?>
<!-- Generator: Adobe Illustrator 19.0.0, SVG Export Plug-In . SVG Version: 6.00 Build 0)  -->
<svg version="1.1" id="Layer_1" xmlns="http://www.w3.org/2000/svg" xmlns:xlink="http://www.w3.org/1999/xlink" x="0px" y="0px"
	 viewBox="-181.2 349 226 143.8" style="enable-background:new -181.2 349 226 143.8;" xml:space="preserve">
<style type="text/css">
	.st0{fill:#68E1FD;}
	.st1{fill:#1D1D1B;}
	.st2{fill:#FFFFFF;}
	.st3{fill:#70CC40;}
	.st4{fill:#F56132;}
	.st5{fill:#FFBC0E;}
</style>
<path class="st0" d="M-180.2,363.9h224l0,0v124.8c0,1.7-1.4,3-3,3h-217.9c-1.7,0-3.1-1.4-3.1-3c0,0,0,0,0,0V363.9L-180.2,363.9z"/>
<path class="st1" d="M40.8,492.8h-217.9c-2.2,0-4.1-1.8-4.1-4.1V363.9c0-0.6,0.4-1,1-1h224c0.6,0,1,0.4,1,1v124.8
	C44.8,491,43,492.8,40.8,492.8z M-179.2,364.9v123.8c0,1.1,0.9,2.1,2.1,2.1H40.8c1.1,0,2.1-0.9,2.1-2.1V364.9H-179.2z"/>
<path class="st2" d="M-177.1,350H40.8c1.7,0,3.1,1.4,3.1,3c0,0,0,0,0,0v10.9l0,0h-224l0,0V353C-180.2,351.4-178.8,350-177.1,350
	C-177.1,350-177.1,350-177.1,350z"/>
<path class="st1" d="M43.8,364.9h-224c-0.6,0-1-0.4-1-1V353c0-2.2,1.8-4.1,4.1-4.1H40.8c2.2,0,4.1,1.8,4.1,4.1v10.9
	C44.8,364.5,44.4,364.9,43.8,364.9z M-179.2,362.9h222V353c0-1.1-0.9-2.1-2.1-2.1h-217.9c-1.1,0-2.1,0.9-2.1,2.1V362.9z"/>
<path class="st3" d="M-105.8,440.7c1.5,0.1,3.3,0.6,3.5,2c0.3,1.6-1.7,2.8-1.7,4.5c0.1,0.7,0.3,1.5,0.5,2.2c0.2,1.5-1.1,2.7-2.2,3.8
	c-3.4,3.6-6.3,7.6-8.5,12c-0.7,1.1-1.2,2.4-1.7,3.6c-0.7,2.2-0.6,4.6,0.3,6.8c0.3,0.6,0.5,1.3,0.6,2c0.1,0.7-0.3,1.4-1,1.6
	c-0.6,0.1-1.2-0.2-1.7-0.6l-3.5-2.4c-2-1-3.3-3.1-3.2-5.4l-1.4-15.5c0-0.7-0.2-1.5-0.6-2.1c-0.4-0.6-1-1-1.6-1.4
	c-1.9-1.3-3.5-3-4.7-5c-0.5-0.7-0.8-1.6-0.9-2.5c-0.1-1.3,0.7-2.5,1.1-3.7c0.8-2.1,0.9-4.4,1.6-6.5c0.7-2.1,2.4-4.2,4.6-4.2
	c2.6,0,4.5,2.7,7,3c0.8,0.1,1.5,0,2.3,0.1c2.5,0.5,3.6,3.2,5.2,4.9C-110.2,439.6-108.1,440.6-105.8,440.7z"/>
<path class="st1" d="M-116.2,480.2c-0.7,0-1.4-0.3-2-0.8l-3.5-2.4c-1.1-0.7-2-1.6-2.7-2.6c-0.5-1.1-0.8-2.3-0.9-3.5l-1.4-15.5
	c0-0.6-0.1-1.2-0.4-1.7c-0.3-0.4-0.7-0.7-1.1-0.9l-0.2-0.1c-2-1.4-3.7-3.2-5-5.3c-0.6-0.9-1-1.9-1.1-3c0-1.1,0.3-2.3,0.8-3.3
	c0.1-0.3,0.3-0.6,0.4-0.9c0.4-1.1,0.6-2.2,0.8-3.3c0.2-1.1,0.4-2.1,0.7-3.1c0.8-2.2,2.6-4.9,5.6-4.9c1.6,0.1,3.1,0.7,4.3,1.7
	c0.9,0.6,1.8,1.1,2.9,1.4c0.3,0,0.6,0,0.9,0c0.5,0,0.9,0,1.4,0.1c2.2,0.4,3.5,2.1,4.6,3.7c0.4,0.5,0.8,1.1,1.2,1.5
	c1.4,1.4,3.2,2.3,5.2,2.4l0,0c2.6,0.2,4.2,1.2,4.4,2.9c0.1,1.1-0.3,2.2-1,3c-0.4,0.5-0.6,1-0.7,1.6c0,0.3,0.1,0.6,0.2,0.9
	c0.1,0.4,0.2,0.8,0.3,1.2c0.2,2-1.3,3.4-2.4,4.6c-3.3,3.5-6.1,7.5-8.4,11.8c-0.6,1.1-1.2,2.2-1.6,3.4c-0.6,2-0.5,4.2,0.3,6.1
	l0.1,0.4c0.3,0.6,0.5,1.3,0.6,1.9c0.1,1.2-0.6,2.3-1.8,2.7C-115.9,480.1-116.1,480.1-116.2,480.2z M-126.2,430.9L-126.2,430.9
	c-1.7,0-3.1,1.8-3.7,3.5c-0.3,0.9-0.5,1.9-0.7,2.9c-0.2,1.2-0.5,2.5-0.9,3.6c-0.1,0.3-0.3,0.6-0.4,0.9c-0.4,0.7-0.6,1.5-0.7,2.4
	c0.1,0.7,0.4,1.4,0.8,2c1.2,1.8,2.7,3.4,4.5,4.7l0.2,0.1c0.6,0.4,1.2,0.9,1.6,1.5c0.4,0.8,0.7,1.7,0.7,2.6l1.4,15.5
	c-0.1,2,0.9,3.8,2.7,4.6l3.5,2.4c0.2,0.1,0.7,0.5,0.9,0.4c0.2-0.1,0.3-0.4,0.2-0.6c-0.1-0.4-0.2-0.9-0.4-1.3l-0.2-0.4
	c-1-2.4-1.1-5-0.3-7.5c0.5-1.3,1-2.6,1.8-3.8c2.3-4.5,5.2-8.6,8.7-12.2c0.9-0.9,2-2,1.9-3c0-0.3-0.1-0.5-0.2-0.8
	c-0.2-0.5-0.3-1-0.3-1.5c0.1-1,0.4-1.9,1-2.7c0.4-0.6,0.8-1.2,0.7-1.6c-0.1-0.8-1.5-1.1-2.6-1.2l0,0c-2.5-0.1-4.8-1.2-6.5-3
	c-0.5-0.5-0.9-1.1-1.4-1.7c-1-1.4-1.9-2.6-3.3-2.9c-0.3-0.1-0.7-0.1-1.1-0.1c-0.4,0-0.8,0-1.2-0.1c-1.3-0.3-2.6-0.8-3.7-1.7
	C-124,431.5-125.1,431-126.2,430.9L-126.2,430.9z"/>
<path class="st3" d="M-131.7,426.8c-0.2-1.4-1.1-2.6-2.4-3.1c-1.5-0.5-3.3,0.2-4.5-0.7c-1-0.8-1-2.2-0.9-3.4c0.1-1.1,0.4-2.2,1-3.2
	c0.6-1,1.8-1.5,2.9-1.3c1.6,0.4,2.3,2.2,3.3,3.4c0.2,0.3,0.6,0.6,1,0.6c1.2,0,1.2-1.7,1.8-2.8s2.2-1.4,3.1-2.4s0.8-2.3,1.4-3.3
	c1.4-2.3,5.2-2,6.9-4.1c0.8-1,1-2.5,2.1-3.3c1.5-1.1,3.9-0.1,5.2-1.4c0.5-0.6,0.8-1.4,0.8-2.3c0.2-1.6,0.1-3.9-1.5-4.2
	c-1.2-0.3-2.6,0.8-3.6,0.1c-0.7-0.5-0.8-1.6-1.5-2c-0.9-0.5-1.9,0.3-2.6,1.1c-0.9,1.2-1.9,2.2-3,3.2c-1.1,0.9-2.7,1.3-4.1,0.9
	c-1.5-0.4-2.3-1.9-1.9-3.4c0,0,0,0,0,0c0.4-0.8,1.1-1.5,2-1.9l4.1-2.4c0.6-0.3,1.1-0.7,1.3-1.3c0.4-1-0.4-1.9-1.1-2.7
	c-0.2-0.3-0.5-0.5-0.9-0.7c-0.9-0.3-1.7,0.4-2.4,1c-2.2,1.4-4.8,2-7.3,1.6c-2.5-0.4-5-0.9-7.5-1.7c-2.6-0.7-5.3-1.2-8-1.5
	c-1.7-0.3-3.3-0.3-5,0c-2,0.5-3.9,1.5-5.5,2.8c-2,1.4-3.8,3-5.5,4.7c-1.3,1.2-2.5,3.1-1.6,4.6c0.2,0.3,0.4,0.5,0.8,0.6
	c0.5,0,0.9-0.2,1.2-0.5c2.2-1.6,4.5-3.2,7.2-3.4c2.7-0.2,5.7,1.6,5.8,4.2c0.1,2.7-2.8,4.7-3.8,7.3c-1.4,3.6,0.9,7.4,3.2,10.6
	l5.1,7.1c0.5,0.7,1.1,1.4,1.8,1.9c0.7,0.3,1.4,0.6,2.2,0.7c2,0.5,3.9,1.4,5.6,2.6c0.8,0.6,3,2.6,4.2,2.1
	C-131.2,430.6-131.6,427.7-131.7,426.8z"/>
<path class="st1" d="M-132.8,432.2c-1.3,0-2.8-1.2-3.9-2l-0.5-0.3c-1.6-1.1-3.3-2-5.2-2.4l-0.4-0.1c-0.7-0.1-1.5-0.4-2.1-0.8
	c-0.8-0.6-1.5-1.3-2.1-2.1l-5.1-7.1c-2.5-3.5-4.8-7.6-3.3-11.5c0.5-1.1,1.1-2.2,1.9-3.1c1-1.3,1.9-2.5,1.8-3.8
	c-0.1-0.8-0.4-1.6-1.1-2.1c-1-0.9-2.3-1.3-3.7-1.2c-2.4,0.2-4.7,1.8-6.7,3.2c-0.6,0.5-1.3,0.7-2,0.6c-0.6-0.1-1.2-0.5-1.5-1.1
	c-0.9-1.6-0.3-3.8,1.8-5.8c1.7-1.7,3.6-3.4,5.6-4.8c1.7-1.4,3.7-2.4,5.9-2.9c1.8-0.3,3.6-0.3,5.3-0.1c2.8,0.3,5.5,0.8,8.2,1.5
	c0.6,0.1,1.1,0.3,1.7,0.5c1.8,0.6,3.7,1,5.6,1.2c2.3,0.3,4.7-0.2,6.6-1.5l0.2-0.1c0.8-0.6,1.9-1.4,3.2-1c0.5,0.2,0.9,0.5,1.2,0.9
	c0.5,0.6,1.9,2.1,1.3,3.7c-0.4,0.8-1,1.4-1.8,1.8l-4.1,2.4c-0.7,0.3-1.3,0.8-1.6,1.4c-0.1,0.3-0.1,0.7,0.1,1c0.2,0.5,0.7,0.8,1.2,1
	c1.1,0.3,2.3,0,3.2-0.8c0.9-0.7,1.7-1.5,2.3-2.4l0.5-0.6c1.3-1.5,2.7-2,3.9-1.3c0.5,0.4,0.9,0.9,1.2,1.4c0.1,0.2,0.2,0.4,0.4,0.6
	c0.2,0.1,0.6,0.1,1.2-0.1c0.7-0.2,1.4-0.3,2.1-0.2c1.8,0.4,2.7,2.4,2.3,5.3c0,1-0.4,2-1.1,2.8c-0.9,0.8-2.1,1.2-3.4,1.1
	c-0.7,0-1.4,0.1-2,0.4c-0.5,0.4-0.8,0.9-1,1.5c-0.2,0.6-0.5,1.1-0.9,1.6c-1,1.1-2.3,1.9-3.8,2.4c-1.2,0.3-2.2,0.9-3,1.8
	c-0.2,0.4-0.4,0.8-0.5,1.3c-0.2,0.8-0.5,1.5-1,2.1c-0.5,0.5-1.1,0.9-1.7,1.3c-0.5,0.2-0.9,0.6-1.3,1c-0.1,0.3-0.3,0.6-0.3,0.9
	c-0.3,0.9-0.7,2.4-2.3,2.4c-0.7-0.1-1.3-0.4-1.8-1c-0.3-0.4-0.6-0.8-0.9-1.3c-0.6-0.9-1.1-1.6-1.9-1.8c-0.8-0.1-1.5,0.3-1.9,0.9
	c-0.5,0.8-0.8,1.8-0.8,2.8c-0.1,1.3,0,2.1,0.5,2.5c0.6,0.3,1.3,0.4,1.9,0.3c0.8,0,1.5,0,2.3,0.2c1.7,0.6,2.8,2.1,3.1,3.9l0,0
	c0,0.2,0.8,4.5-1.2,5.4C-132.2,432.2-132.5,432.2-132.8,432.2z M-155.9,393.6c1.7,0,3.3,0.6,4.6,1.7c1,0.9,1.7,2.1,1.7,3.5
	c0.1,2-1.1,3.6-2.2,5.1c-0.7,0.8-1.2,1.7-1.7,2.6c-1.2,3,0.9,6.6,3.1,9.6l5.1,7.1c0.4,0.6,0.9,1.2,1.5,1.6c0.5,0.2,1,0.4,1.6,0.5
	l0.4,0.1c2.1,0.5,4.2,1.5,5.9,2.8c0.1,0.1,0.3,0.3,0.5,0.4c1.8,1.4,2.4,1.6,2.6,1.6c0.3-1.1,0.3-2.2,0.1-3.3l0,0
	c-0.1-1-0.8-1.9-1.7-2.3c-0.5-0.1-1.1-0.2-1.6-0.1c-1.1,0.1-2.2-0.1-3.2-0.8c-1.1-0.8-1.5-2.2-1.3-4.3c0.1-1.3,0.5-2.6,1.2-3.7
	c0.9-1.3,2.4-2,4-1.7c1.3,0.4,2.4,1.4,3.1,2.6c0.2,0.4,0.5,0.7,0.8,1.1c0.2,0.3,0.3,0.3,0.3,0.3s0.2-0.6,0.3-0.9
	c0.1-0.4,0.3-0.9,0.5-1.3c0.5-0.8,1.2-1.4,2-1.8c0.4-0.2,0.8-0.5,1.2-0.8c0.3-0.4,0.5-0.9,0.6-1.4c0.2-0.6,0.4-1.2,0.7-1.7
	c0.9-1.5,2.6-2.1,4-2.6c1.1-0.3,2.1-0.8,2.9-1.6c0.3-0.4,0.5-0.8,0.7-1.2c0.3-0.9,0.9-1.7,1.6-2.3c0.9-0.5,1.9-0.8,3-0.8
	c0.7,0.1,1.4-0.1,2-0.5c0.3-0.5,0.5-1.1,0.5-1.7c0.1-1.1,0.1-2.9-0.8-3.1c-0.4,0-0.8,0-1.2,0.2c-0.9,0.4-1.9,0.3-2.8-0.2
	c-0.4-0.4-0.8-0.8-1-1.4c-0.1-0.2-0.2-0.4-0.4-0.6c-0.2-0.1-0.8,0.2-1.3,0.9l-0.5,0.6c-0.8,1-1.7,1.9-2.7,2.8
	c-1.4,1.1-3.3,1.5-5,1.1c-1-0.4-1.9-1.1-2.4-2.1c-0.4-0.8-0.4-1.8-0.1-2.6c0.5-1,1.4-1.9,2.5-2.4l4.1-2.4c0.3-0.2,0.8-0.5,0.9-0.8
	c0.1-0.3-0.2-0.9-0.9-1.6c-0.1-0.2-0.3-0.3-0.5-0.4c-0.3-0.1-0.9,0.3-1.3,0.7l-0.2,0.2c-2.4,1.6-5.2,2.2-8,1.8c-2-0.3-4-0.7-6-1.3
	l-1.6-0.5c-2.6-0.7-5.2-1.2-7.9-1.5c-1.5-0.3-3.1-0.3-4.7,0c-1.9,0.5-3.6,1.4-5.1,2.6c-1.9,1.4-3.7,2.9-5.4,4.6
	c-0.5,0.5-2.1,2.3-1.4,3.4c0,0.1,0.1,0.1,0.1,0.2c0,0,0.2-0.1,0.4-0.3c2.2-1.6,4.7-3.3,7.7-3.6
	C-156.3,393.6-156.1,393.6-155.9,393.6z"/>
<path class="st3" d="M-124,424.9c-1-1.2-2.5-2-4.1-2.1c-0.3-0.1-0.6,0-0.9,0.1c-0.3,0.2-0.4,0.5-0.2,0.8c0,0,0,0,0,0l2.8,1.9
	c0.2,0.2,0.5,0.3,0.8,0.4c0.6,0.1,1.2-0.4,1.3-1c0-0.1,0-0.2,0-0.3"/>
<path class="st1" d="M-125.5,427c-0.1,0-0.2,0-0.3,0c-0.5-0.1-0.9-0.3-1.2-0.6l-2.8-1.9c-0.1-0.1-0.1-0.1-0.2-0.2
	c-0.3-0.3-0.4-0.7-0.3-1.1c0.1-0.5,0.3-0.9,0.7-1.1c0.5-0.3,1-0.4,1.5-0.3c1.9,0.2,3.6,1.1,4.8,2.5c0.3,0.4,0.3,1-0.1,1.4
	c-0.1,0-0.1,0.1-0.2,0.1C-123.9,426.5-124.7,427-125.5,427L-125.5,427z M-127,424l1.1,0.8c0.1,0.1,0.3,0.2,0.4,0.3
	c0,0,0.1-0.1,0.1-0.1C-125.9,424.5-126.4,424.2-127,424L-127,424z"/>
<path class="st3" d="M-89.4,386.6c-0.8,1.5-1.4,3.4-3,4c-0.9,0.2-1.8,0.2-2.6,0.2c-3.2,0.4-5.2,4.2-8.5,4.6
	c-0.6,0.1-1.2-0.1-1.6-0.5c-0.2-0.3-0.3-0.6-0.3-1c-0.1-2.1,1.7-4.4,0.5-6.2c-0.6-0.7-1.4-1.3-2.3-1.6c-0.8-0.5-1.6-1.4-1.3-2.3
	c0.3-0.9,1.6-1.3,2.6-1.3l12.1-1c1.7-0.1,4.4-0.5,5.9,0.6C-86,383.5-88.6,384.9-89.4,386.6z"/>
<path class="st1" d="M-103.9,396.4c-0.8,0-1.6-0.3-2.1-0.9c-0.3-0.4-0.5-1-0.5-1.5c0-1,0.2-1.9,0.5-2.9c0.4-1.3,0.6-2.2,0.1-2.8
	c-0.4-0.4-0.8-0.8-1.3-1l-0.7-0.4c-1.1-0.7-2.2-2-1.8-3.5c0.5-1.8,2.7-2,3.5-2l12.4-1c1.9-0.2,4.5-0.4,6.2,0.8
	c0.7,0.4,1.1,1,1.2,1.8c0,1.1-0.5,2.1-1.3,2.8c-0.3,0.4-0.7,0.8-0.9,1.2l0,0l-0.4,0.8c-0.7,1.4-1.4,3-3.1,3.6
	c-0.6,0.2-1.3,0.3-2,0.2c-0.3,0-0.6,0-0.9,0c-1.4,0.3-2.7,1.1-3.7,2.1c-1.4,1.1-2.8,2.3-4.7,2.5L-103.9,396.4z M-91.4,382.3
	c-0.8,0-1.5,0.1-2.2,0.1l-12.4,1c-1,0.1-1.6,0.3-1.7,0.6s0.3,0.8,0.9,1.2c0.2,0.1,0.4,0.2,0.6,0.3c0.8,0.3,1.5,0.9,2.1,1.6
	c1,1.5,0.5,3.1,0.1,4.5c-0.3,0.7-0.4,1.5-0.4,2.2c0,0.1,0,0.3,0.1,0.4c0.2,0.1,0.5,0.2,0.7,0.1c1.4-0.3,2.7-1.1,3.7-2.1
	c1.4-1.1,2.9-2.3,4.8-2.5c0.4,0,0.7,0,1.1,0c0.4,0,0.9,0,1.3-0.1c0.9-0.3,1.4-1.4,2-2.6c0.1-0.3,0.3-0.6,0.4-0.9l0,0
	c0.3-0.6,0.7-1.1,1.2-1.6c0.3-0.4,0.9-1,0.9-1.3c0,0-0.1-0.2-0.4-0.4C-89.5,382.4-90.5,382.2-91.4,382.3z"/>
<path class="st3" d="M-88,418.9c-0.6,0.6-1,1.2-1.3,2c-0.2,0.8-0.2,1.6-0.1,2.4c0.1,2.6-0.4,5.2,0,7.8c0.4,2.6,2,5.3,4.5,5.8
	c1.3,0.2,2.6,0.1,3.9-0.2c1.7-0.2,3.4-0.3,5.1-0.2c0.8-0.1,1.6,0.3,2.1,0.9c0.5,0.9-0.1,2,0,3c0.1,1.3,1.2,2.3,2.1,3.2
	s1.6,2.5,0.8,3.5c-0.3,0.4-0.7,0.6-1,1c-0.4,0.7-0.5,1.5-0.3,2.2l0.6,4.6c0.1,0.7,0.2,1.3,0.5,1.9c0.3,0.6,0.7,1,1,1.6
	c0.3,1,0.5,2.1,0.6,3.1c0.6,3,3.6,4.9,6.6,4.3c1.2-0.3,2.3-0.9,3.1-1.9c1.9-2.3,1.7-5.8,3.3-8.4c0.9-1.5,2.4-2.7,2.7-4.4
	c0.3-1.4-0.2-2.8-0.3-4.2c-0.1-2.4,1.2-4.6,2.7-6.4c1.6-1.7,3.1-3.6,4.5-5.5c0.2-0.2,0.3-0.5,0.3-0.8c0-0.9-1.2-1.2-2.1-1.5
	c-2.6-0.8-4-3.4-5-5.9c-0.9-2.3-2.1-4.4-3.4-6.5c-1.4-2-3.5-3.5-5.9-4.1c-2.8-0.6-3.7,2.3-6.7,0.6c-1.9-1-3.1-3.1-5.1-4
	C-79.8,410.8-85,415.4-88,418.9z"/>
<path class="st1" d="M-64,467c-0.5,0-1-0.1-1.5-0.2c-2.4-0.6-4.3-2.6-4.8-5c-0.1-0.4-0.1-0.8-0.2-1.2c0-0.8-0.2-1.7-0.8-2.3
	c-0.2-0.3-0.4-0.6-0.6-0.9c-0.3-0.7-0.5-1.5-0.6-2.3l-0.6-4.6c-0.3-1-0.1-2.1,0.4-3c0.2-0.2,0.4-0.5,0.6-0.7
	c0.1-0.1,0.2-0.2,0.3-0.3c0.4-0.5-0.1-1.5-0.8-2.2l-0.4-0.4c-1.6-1-2.3-3-1.9-4.8c0.1-0.4,0.1-0.8,0-1.1c-0.1-0.2-0.6-0.4-1.3-0.4
	c-1.6-0.1-3.3,0-4.9,0.2l-0.6,0.1c-1.2,0.3-2.4,0.3-3.7,0.1c-3.3-0.7-4.9-4-5.3-6.6c-0.2-1.6-0.2-3.3-0.1-4.9c0.1-1,0.1-2,0.1-3V423
	c-0.1-0.8,0-1.6,0.2-2.4c0.3-0.9,0.9-1.7,1.5-2.4l0,0c5.2-5.9,10.2-8,14.5-6.1c1.1,0.6,2.1,1.4,3,2.3c0.6,0.7,1.4,1.3,2.1,1.8
	c0.9,0.5,2,0.5,2.9-0.1c1.1-0.6,2.3-0.9,3.6-0.6c2.7,0.6,5,2.2,6.6,4.5c1.3,1.9,2.5,4,3.3,6.2l0.2,0.5c1.1,2.4,2.4,4.7,4.4,5.3
	l0.2,0.1c1,0.3,2.7,0.8,2.6,2.4c0,0.5-0.2,0.9-0.5,1.3c-0.9,1.3-1.9,2.6-3,3.8c-0.6,0.6-1.1,1.2-1.6,1.9c-1.7,2.1-2.5,4-2.5,5.8
	c0,0.5,0.1,1,0.2,1.4c0.6,2.3-0.1,4.7-1.8,6.3c-0.4,0.4-0.7,0.9-1,1.4c-0.6,1.1-1,2.3-1.3,3.5c-0.3,1.8-1,3.5-2.1,5
	C-60.2,466.2-62,467-64,467z M-77.5,435.5c0.5,0,1,0,1.6,0c1.1,0,2.2,0.5,2.9,1.4c0.4,0.8,0.5,1.7,0.2,2.5c-0.1,0.3-0.1,0.6-0.1,0.9
	c0,0.7,0.7,1.4,1.4,2.1l0.4,0.5c1.3,1.3,2,3.4,0.9,4.8c-0.2,0.2-0.4,0.4-0.6,0.6c-0.1,0.1-0.2,0.2-0.3,0.3c-0.2,0.5-0.2,1-0.1,1.5
	l0.6,4.6c0,0.6,0.2,1.1,0.4,1.6c0.1,0.2,0.3,0.4,0.4,0.6c0.2,0.3,0.4,0.6,0.6,0.9c0.3,0.7,0.5,1.6,0.6,2.4c0,0.3,0.1,0.7,0.1,1
	c0.5,2.5,2.9,4,5.4,3.5c1-0.2,1.9-0.7,2.5-1.5c0.9-1.2,1.5-2.7,1.7-4.1c0.3-1.4,0.8-2.8,1.5-4.1c0.3-0.5,0.7-1,1.1-1.5
	c1.3-1.2,1.9-3,1.4-4.8c-0.1-0.6-0.2-1.1-0.2-1.7c-0.1-2.3,0.9-4.6,2.9-7.1c0.5-0.7,1.1-1.3,1.7-1.9c1-1.1,2-2.2,2.8-3.5
	c0.1-0.1,0.1-0.2,0.2-0.3c-0.4-0.2-0.8-0.4-1.2-0.5l-0.2-0.1c-2.8-0.9-4.4-3.6-5.7-6.4l-0.2-0.5c-0.8-2-1.9-4-3.1-5.8
	c-1.2-1.8-3.1-3.2-5.3-3.7c-0.8-0.1-1.6,0.1-2.3,0.5c-1.4,0.9-3.2,0.9-4.7,0.1c-0.9-0.6-1.8-1.3-2.6-2c-0.7-0.8-1.6-1.4-2.5-1.9
	c-4.3-1.9-9,2-12.2,5.6l0,0c-0.5,0.5-0.9,1-1.1,1.6c-0.1,0.6-0.2,1.1-0.1,1.7v0.3c0,1.1,0,2.1-0.1,3.2c-0.1,1.5-0.1,3,0.1,4.5
	c0.3,2.1,1.6,4.5,3.7,5c1,0.1,2,0.1,2.9-0.1l0.6-0.1C-80,435.6-78.8,435.5-77.5,435.5L-77.5,435.5z"/>
<path class="st3" d="M-50.3,451.1c0,0.3,0,0.6-0.1,0.8c-0.1,0.3-0.3,0.5-0.6,0.7c-1.2,1.2-1.6,3-0.9,4.6c0,0.1,0.1,0.3,0.2,0.4
	c0.1,0.1,0.3,0.2,0.5,0.2c0.8,0.1,1.5-0.1,2.1-0.6c0.5-0.5,1-1.1,1.3-1.8c0.6-1,1-2,1.3-3.1c0.3-1.2,0.5-3.5-1-3.9
	C-49,448.1-50.2,449.9-50.3,451.1z"/>
<path class="st1" d="M-50.8,458.9c-0.2,0-0.4,0-0.6-0.1c-0.4-0.1-0.7-0.3-1-0.5c-0.2-0.2-0.3-0.4-0.4-0.7c-0.8-2-0.3-4.2,1.2-5.7
	l0.1-0.1c0.1-0.1,0.1-0.1,0.2-0.2c0-0.1,0-0.2,0-0.3v-0.2l0,0c0.1-1.2,0.7-2.3,1.6-3.1c0.7-0.6,1.5-0.8,2.4-0.6
	c0.6,0.1,1.2,0.5,1.5,1.1c0.8,1.3,0.5,3.2,0.3,4c-0.3,1.2-0.8,2.3-1.4,3.4c-0.4,0.8-0.9,1.5-1.5,2.1
	C-49.1,458.6-49.9,458.9-50.8,458.9z M-49.3,451.2v0.1c0,0.3,0,0.7-0.2,1c-0.2,0.3-0.4,0.7-0.7,0.9l-0.1,0.1
	c-0.9,0.9-1.2,2.3-0.7,3.5c0.4,0.1,0.9-0.1,1.2-0.4c0.4-0.5,0.8-1,1.1-1.5c0.5-0.9,0.9-1.9,1.2-2.9c0.3-0.8,0.3-1.7,0-2.5
	c-0.1-0.1-0.2-0.2-0.3-0.2c-0.3,0-0.5,0.1-0.7,0.2C-48.9,450-49.2,450.6-49.3,451.2z"/>
<path class="st3" d="M-61.3,390.1c-0.7,0-1.4-0.2-2.1-0.6c-0.6-0.5-1.1-1-1.7-1.5c-2.1-1.6-5.1-0.2-7.2,1.4
	c-1.9,1.5-3.7,3.1-5.3,4.9l4.9,2.3c-0.1-0.9,0.6-1.6,1.5-1.6c0.8,0,1.4,0.5,1.6,1.2c0.3,1.5-1.5,2.5-3,2.9l-6.4,1.9
	c-0.4,0.1-1,0-0.8-0.4c-0.7-0.6-1.5,0.7-1.2,1.5s0.8,1.8,0.3,2.5s-1.4,0.5-2,0.9c-1.6,0.8-1.1,3.2-0.3,4.8c2.5-2,5.9-2.4,8.7-0.8
	c0.6,0.4,1.2,0.7,1.8,0.9c0.9,0.1,1.9,0,2.8-0.3c3-0.7,6.1-0.2,8.8,1.4c-0.6,0.4-0.3,1.4,0.3,1.7c0.6,0.3,1.4,0.3,2,0.7
	c0.6,0.4,1.1,1,1.5,1.6l5,7.8c0.7,1.2,1.6,2.2,2.6,3c2.1,1.3,4.9,0.6,6.2-1.5c0.5-0.9,0.8-1.9,0.6-2.9l-2.9-1.8
	c1.2-1.4,3.3-1.4,5-0.8c1.7,0.6,3.2,1.7,4.9,2.2c0.5,0.1,0.9,0.3,1.3,0.6c0.3,0.4,0.5,0.9,0.5,1.4c0.6,3.1,2.2,6,4.6,8.2
	c0.3,0.4,0.8,0.6,1.3,0.8c1.5,0.3,2.4-1.6,2.5-3.2c0-1.5-0.2-3.4,1.1-4.3c1.6-1.3,3.9,0.3,5.4,1.8l3.8,4c1.3,1.4,3.4,2.9,4.9,1.7
	c1.4-1,0.9-3.1,0.4-4.8s-0.9-3.9,0.6-4.7s4,0.8,5.4-0.4c0.6-0.7,0.9-1.6,0.6-2.5c-0.4-1.9-1.6-3.4-2.3-5.1s-0.6-4.2,1.1-5
	c1,1.9,2.3,3.5,3.9,4.9l1.7-11.9c0.1-0.5,0.1-1.1,0-1.6c-0.6-1.7-3.4-1.9-3.8-3.7c-0.1-1.1,0.7-2.1,1.8-2.3c1.1-0.2,2.2-0.1,3.2,0.3
	C3,398.7,5.8,401,9,401c-1.2-1.9-0.9-4.4,0.8-6c0.5-0.5,1.3-0.9,1.6-1.5c0.8-1.6-1.2-3.2-2.9-3.8c-10.5-3.3-22.8,3.7-32.8-1
	c-3-1.4-6.1-4.7-9.6-5c-2.6-0.2-3.8,1.6-5.8,2.8c-3.3,2.1-6.1,0.5-9.5,1.5c-1.9,0.6-3.3,1.9-5.3,2.2
	C-56.7,390.5-59,390.5-61.3,390.1z"/>
<path class="st1" d="M-11.5,433.8c-1.3,0-2.9-0.8-4.4-2.4l-3.8-4c-1.2-1.3-3-2.5-4-1.7c-0.7,0.5-0.7,1.7-0.7,2.9c0,0.2,0,0.4,0,0.7
	c0,1.4-0.6,2.7-1.6,3.6c-0.6,0.5-1.4,0.7-2.1,0.5c-0.7-0.2-1.3-0.5-1.7-1c-2.5-2.3-4.2-5.4-4.9-8.7c0-0.3-0.1-0.6-0.3-0.9
	c-0.2-0.1-0.4-0.2-0.6-0.3h-0.2c-1-0.3-2-0.7-2.9-1.3c-0.7-0.4-1.4-0.7-2.1-1c-0.9-0.3-1.9-0.4-2.8-0.2l1.6,1
	c0.3,0.2,0.4,0.4,0.5,0.7c0.4,3-1.7,5.8-4.7,6.1c-1.2,0.2-2.5-0.1-3.6-0.8c-1.2-0.9-2.3-2-3-3.4l-5-7.8c-0.3-0.5-0.6-0.9-1.1-1.3
	c-0.2-0.1-0.5-0.2-0.7-0.2c-0.5-0.1-0.9-0.2-1.3-0.5c-0.7-0.4-1.2-1.2-1.2-2c0-0.1,0-0.1,0-0.2c-2.3-1.1-4.8-1.4-7.3-0.8l-0.4,0.1
	c-0.9,0.3-1.9,0.4-2.8,0.2c-0.6-0.2-1.2-0.4-1.7-0.8l-0.4-0.2c-2.4-1.3-5.5-1-7.6,0.7c-0.2,0.2-0.6,0.3-0.9,0.2
	c-0.3-0.1-0.6-0.3-0.7-0.5c-1.4-2.8-1.1-5.2,0.7-6.1c0.3-0.2,0.7-0.3,1-0.4c0.2,0,0.5-0.1,0.6-0.2c0.1-0.1-0.1-0.7-0.2-1
	s-0.1-0.4-0.2-0.6c-0.2-1,0.2-2.1,1-2.7c0.6-0.4,1.3-0.3,1.9,0.1c0,0,0.1,0.1,0.1,0.1l6.1-1.8c1.3-0.4,2.4-1.1,2.3-1.8
	c-0.1-0.3-0.4-0.5-0.7-0.4c-0.2,0.1-0.4,0.3-0.4,0.5c0,0.4-0.1,0.7-0.4,0.9c-0.3,0.2-0.7,0.2-1,0.1l-4.9-2.3
	c-0.3-0.1-0.5-0.4-0.6-0.7c-0.1-0.3,0-0.6,0.2-0.9c1.6-1.8,3.5-3.5,5.4-5c1.5-1.2,5.4-3.7,8.4-1.4c0.3,0.2,0.6,0.5,0.8,0.8
	c0.2,0.3,0.5,0.5,0.8,0.7c0.5,0.2,1.1,0.4,1.7,0.4l0,0h0.2c2.1,0.4,4.2,0.4,6.4,0.2c1-0.2,1.9-0.6,2.8-1.1c0.8-0.5,1.6-0.8,2.5-1.1
	c1.4-0.4,2.9-0.5,4.3-0.4c1.8,0,3.3,0.1,4.9-1c0.5-0.3,1-0.7,1.4-1c1.3-1,2.7-2.1,5-2c2.5,0.2,4.7,1.7,6.8,3.1c1,0.7,2,1.4,3.1,1.9
	c5.1,2.4,10.7,1.6,16.7,0.8c5.3-0.7,10.8-1.4,16,0.2c1.5,0.4,2.8,1.4,3.5,2.8c0.3,0.7,0.3,1.6,0,2.3c-0.3,0.6-0.8,1.1-1.4,1.5
	l-0.4,0.3c-1.3,1.2-1.5,3.2-0.6,4.7c0.2,0.3,0.2,0.7,0.1,1c-0.2,0.3-0.5,0.5-0.9,0.5c-3.5,0-6.5-2.3-7.5-5.6
	C0.8,396,0,396-0.7,396.1c-0.6,0.1-1.1,0.7-1.1,1.2c0.1,0.4,0.6,0.8,1.4,1.2c1,0.5,1.9,1.3,2.3,2.3c0.2,0.7,0.2,1.4,0.1,2.1
	l-1.7,11.9c-0.1,0.5-0.6,0.9-1.1,0.9c-0.2,0-0.4-0.1-0.5-0.2c-1.4-1.2-2.5-2.5-3.5-4.1c-0.4,1-0.3,2,0.1,3c0.3,0.6,0.6,1.2,0.9,1.8
	c0.7,1.1,1.2,2.2,1.5,3.5c0.3,1.2,0,2.5-0.9,3.4c-1.1,0.7-2.4,0.9-3.6,0.5c-0.7-0.2-1.3-0.2-2,0c-0.9,0.5-0.6,2.2-0.2,3.5
	c0.4,1.1,1.5,4.3-0.7,5.9C-10.2,433.5-10.9,433.8-11.5,433.8z M-23,423.4c1.4,0,3.1,0.9,4.7,2.6l3.8,4c0.4,0.4,2.4,2.5,3.6,1.6
	c0.7-0.5,0.7-1.7,0-3.7c-1-2.8-0.6-5,1.1-5.9c1-0.4,2.2-0.5,3.3-0.2c1,0.2,1.6,0.2,2-0.1c0.3-0.4,0.4-1,0.3-1.5
	c-0.3-1-0.7-2-1.2-2.9c-0.4-0.7-0.7-1.4-1-2.1c-0.9-2.2-0.7-5.2,1.5-6.3c0.5-0.2,1.1-0.1,1.3,0.4c0.6,1.2,1.4,2.3,2.3,3.3l1.4-10
	c0.1-0.4,0.1-0.8,0-1.2c-0.2-0.5-0.8-0.8-1.4-1.2c-1.1-0.5-2-1.4-2.4-2.6c-0.2-1.6,0.9-3.2,2.5-3.5c1.2-0.2,2.5-0.1,3.7,0.3
	c0.4,0.1,0.7,0.4,0.7,0.8c0.5,2.1,2,3.8,4.1,4.4c-0.5-2,0.2-4.1,1.7-5.5c0.2-0.1,0.3-0.3,0.5-0.4c0.3-0.2,0.6-0.5,0.8-0.8
	c0.1-0.2,0.1-0.5,0-0.7c-0.5-0.8-1.3-1.4-2.3-1.7c-4.7-1.5-10-0.8-15.1-0.1c-6,0.8-12.2,1.6-17.8-1c-1.2-0.6-2.3-1.3-3.4-2.1
	c-1.9-1.3-3.8-2.6-5.8-2.8c-1.5-0.1-2.4,0.6-3.6,1.5c-0.5,0.4-1,0.8-1.6,1.1c-1.8,1.1-3.9,1.5-6,1.3c-1.2-0.1-2.5,0-3.7,0.3
	c-0.7,0.3-1.4,0.6-2.1,1c-1,0.6-2.2,1.1-3.4,1.3c-2.3,0.3-4.6,0.2-6.9-0.1h-0.2c-0.9-0.1-1.7-0.3-2.5-0.7c-0.4-0.3-0.8-0.6-1.1-1
	c-0.2-0.2-0.4-0.4-0.6-0.6c-1.9-1.5-5.1,0.7-6,1.4c-1.5,1.2-2.9,2.4-4.2,3.8l2.6,1.2c0.7-1.2,2.3-1.6,3.5-0.9c0.6,0.4,1.1,1,1.2,1.7
	c0.4,1.8-1,3.3-3.7,4.1l-6.4,1.8c-0.5,0.1-0.9,0.1-1.4-0.1l0,0c0.1,0.2,0.1,0.3,0.2,0.5c0.8,1.1,0.5,2.7-0.7,3.4
	c-0.4,0.2-0.8,0.4-1.2,0.4c-0.2,0-0.4,0.1-0.6,0.2c-0.6,0.3-0.6,1.3-0.3,2.3c2.7-1.6,6-1.6,8.8-0.1l0.5,0.3c0.3,0.2,0.7,0.4,1.1,0.6
	c0.6,0.1,1.3,0,1.9-0.2l0.5-0.1c3.3-0.7,6.7-0.2,9.5,1.5c0.3,0.2,0.5,0.5,0.5,0.9c0,0.3-0.1,0.5-0.3,0.7c0,0.1,0.1,0.1,0.1,0.1
	c0.2,0.1,0.5,0.2,0.8,0.2c0.4,0.1,0.8,0.2,1.2,0.4c0.8,0.5,1.4,1.2,1.9,2l5,7.8c0.6,1.1,1.4,2,2.3,2.7c1.6,1,3.8,0.5,4.8-1.2
	c0.3-0.6,0.5-1.2,0.5-1.8l-2.5-1.5c-0.2-0.2-0.4-0.4-0.5-0.7c0-0.3,0-0.6,0.2-0.8c1.6-1.9,4.3-1.7,6.1-1.1c0.8,0.3,1.6,0.7,2.3,1
	c0.8,0.5,1.7,0.8,2.6,1.1h0.1c1.3,0.2,2.3,1.3,2.3,2.6c0.6,3,2.1,5.7,4.3,7.7c0.2,0.2,0.5,0.4,0.8,0.5c0.2,0,0.3,0,0.5-0.1
	c0.5-0.6,0.8-1.3,0.8-2.1c0-0.2,0-0.4,0-0.6c0-1.5,0-3.3,1.4-4.5C-24.4,423.6-23.7,423.3-23,423.4z"/>
<path class="st3" d="M9.5,448.2c-0.1-1.3-1.1-2.8-2.3-2.4c-0.9,0.4-1,1.6-1.7,2.3c-1,0.9-2.6,0.4-3.7,1.2c-0.8,0.6-1,1.7-1.6,2.6
	c-1.2,1.6-3.6,1.6-5.2,2.7c-1.4,0.9-2.2,2.5-2,4.2c0.1,0.7,0.2,1.4,0.2,2.1c-0.2,0.9-0.6,1.7-1.1,2.5c-0.4,0.8-0.4,2,0.4,2.5
	c1.1,0.6,2.3-0.8,3.4-1.4c1.5-0.8,3.4,0,5-0.4c0.6-0.3,1.3-0.4,2-0.4c1.4,0.3,1.4,2.4,2.3,3.6c0.4,0.4,0.8,0.8,1.2,1.1
	c0.9,0.8,1.4,2,1.5,3.2c0.8,0.1,1.6-0.3,2-0.9c0.5-0.6,0.7-1.4,1.1-2.1c0.9-1.5,2.6-2.4,4-3.5c1.5-1.1,2.8-2.6,3.9-4.2
	c0.5-0.6,0.7-1.5,0.6-2.3c-0.2-0.7-0.9-1.1-1.3-1.7c-1.2-1.4-1.2-3.3-1.4-5.1c-0.2-1.8-0.8-3.8-2.4-4.6c-0.8,0.7-0.7,2-1,3.1
	c-0.2,1-1.1,1.6-2.1,1.4c-0.2,0-0.3-0.1-0.5-0.2C9.5,450.9,9.6,449.1,9.5,448.2z"/>
<path class="st1" d="M8,472.6c-0.2,0-0.4,0-0.6-0.1c-0.4-0.1-0.7-0.5-0.8-0.9c0-1-0.5-1.9-1.2-2.5l-0.4-0.3c-0.4-0.3-0.7-0.6-1-0.9
	c-0.4-0.6-0.7-1.2-0.9-1.8c-0.3-0.8-0.5-1.3-0.8-1.4c-0.3,0-0.6,0.1-0.9,0.2L1,465c-0.8,0.2-1.7,0.2-2.6,0.1c-0.8-0.1-1.5,0-2.3,0.2
	c-0.3,0.2-0.6,0.4-0.9,0.6c-0.9,0.6-2.1,1.5-3.5,0.8s-1.4-2.5-0.8-3.8c0.1-0.3,0.3-0.6,0.5-0.9c0.3-0.4,0.5-0.8,0.6-1.3
	c0-0.4,0-0.7-0.1-1.1c0-0.3-0.1-0.5-0.1-0.8c-0.2-2,0.8-4,2.5-5.2c0.8-0.5,1.6-0.8,2.4-1.1c1-0.2,1.9-0.7,2.5-1.4
	c0.2-0.3,0.3-0.6,0.5-0.9c0.3-0.7,0.7-1.4,1.3-1.9c0.7-0.4,1.4-0.7,2.2-0.7c0.5,0,1-0.2,1.4-0.4c0.2-0.2,0.4-0.5,0.5-0.8
	c0.3-0.8,0.9-1.4,1.7-1.7c0.7-0.3,1.4-0.2,2,0.2c1,0.7,1.6,1.8,1.7,3l0,0c0,0.1,0,0.3,0,0.5c0,0.6,0.1,1.8,0.5,2
	c0.1,0.1,0.3,0.1,0.5,0.1c0.3-0.1,0.5-0.4,0.6-0.7c0.1-0.3,0.1-0.6,0.2-0.9c0.1-1,0.5-2,1.2-2.7c0.3-0.3,0.7-0.3,1.1-0.2
	c1.7,0.8,2.7,2.6,3,5.4l0.1,0.6c0.1,1.5,0.3,3,1.1,4c0.1,0.1,0.3,0.3,0.4,0.4c0.5,0.4,0.9,1,1.1,1.6c0.2,1.1,0,2.2-0.7,3.1
	c-1.1,1.7-2.5,3.2-4.1,4.4c-0.3,0.3-0.7,0.5-1.1,0.8c-1.1,0.6-2,1.5-2.7,2.5c-0.2,0.3-0.3,0.5-0.4,0.8c-0.2,0.5-0.4,0.9-0.7,1.3
	C10,472,9,472.5,8,472.6z M2.4,462.6c0.2,0,0.3,0,0.5,0c1.5,0.3,1.9,1.7,2.3,2.7c0.1,0.5,0.3,0.9,0.6,1.3c0.2,0.2,0.4,0.4,0.6,0.6
	l0.5,0.4c0.8,0.8,1.4,1.7,1.6,2.8c0.1-0.1,0.3-0.2,0.4-0.4c0.2-0.3,0.4-0.7,0.5-1c0.2-0.3,0.3-0.7,0.5-1c0.9-1.2,2-2.3,3.3-3.1
	c0.3-0.2,0.7-0.5,1-0.7c1.4-1.1,2.7-2.4,3.6-3.9c0.4-0.7,0.6-1.1,0.5-1.5c-0.2-0.3-0.4-0.6-0.6-0.8c-0.2-0.2-0.3-0.3-0.5-0.5
	c-1.3-1.5-1.4-3.4-1.6-5.1l-0.1-0.6c0-1.2-0.4-2.3-1.1-3.2c-0.1,0.3-0.1,0.6-0.2,0.8c-0.1,0.4-0.1,0.7-0.2,1.1
	c-0.2,0.9-0.9,1.6-1.8,2c-0.7,0.3-1.6,0.2-2.3-0.2c-1.3-0.8-1.4-2.5-1.5-3.6c0-0.2,0-0.3,0-0.4l0,0c0-0.6-0.3-1.1-0.8-1.5
	c-0.1-0.1-0.1,0-0.2,0s-0.4,0.4-0.5,0.8c-0.2,0.5-0.5,1-0.9,1.3c-0.7,0.6-1.6,0.9-2.5,0.9c-0.5,0-0.9,0.1-1.3,0.4
	c-0.3,0.3-0.6,0.7-0.7,1.1c-0.2,0.4-0.4,0.8-0.7,1.2c-0.9,1-2.2,1.8-3.5,2.1c-0.7,0.2-1.4,0.5-2,0.8c-1.1,0.7-1.7,2-1.6,3.4
	c0,0.2,0.1,0.4,0.1,0.6c0.1,0.5,0.2,1.1,0.1,1.7c-0.1,0.7-0.4,1.4-0.8,2.1c-0.1,0.2-0.3,0.5-0.4,0.7c-0.2,0.5-0.2,1.1,0,1.2
	c0.2,0.1,0.7-0.2,1.3-0.6c0.4-0.3,0.8-0.5,1.2-0.8c1-0.4,2.1-0.6,3.3-0.4c0.6,0.1,1.3,0.1,1.9-0.1l0.5-0.2
	C1.4,462.7,1.9,462.6,2.4,462.6L2.4,462.6z"/>
<path class="st3" d="M13.1,444.5c-0.7,0.2-1.5-0.1-2-0.7c-0.3-0.4-0.3-1-0.5-1.5c-0.5-0.9-1.7-1.1-2.3-1.9c-0.1-0.1-0.1-0.2-0.1-0.3
	c0-0.2,0.3-0.3,0.5-0.3l2-0.1c1.1-0.2,2.2,0,3.2,0.5c0.6,0.4,1,0.9,1.3,1.5c0.5,0.7,0.8,1.5,1,2.4C15.2,444.1,14.2,444.2,13.1,444.5
	z"/>
<path class="st1" d="M12.8,445.5c-1,0.1-1.9-0.4-2.5-1.2c-0.2-0.3-0.3-0.6-0.4-1c0-0.2-0.1-0.3-0.1-0.4c-0.2-0.3-0.5-0.5-0.8-0.6
	c-0.5-0.3-1-0.7-1.4-1.1c-0.2-0.3-0.3-0.6-0.3-1c0.1-0.7,0.8-1.2,1.5-1.1l2-0.1c1.3-0.2,2.6,0.1,3.8,0.7c0.7,0.5,1.3,1.1,1.7,1.9
	c0.5,0.8,0.9,1.8,1.1,2.7c0,0.3-0.1,0.7-0.3,0.9c-0.2,0.2-0.6,0.3-0.9,0.2c-0.6-0.1-1.2-0.1-1.8,0.1c-0.3,0.1-0.7,0.1-1,0.2l0,0
	L12.8,445.5z M10.6,440.8c0.4,0.3,0.7,0.6,1,1c0.1,0.3,0.2,0.6,0.3,0.9c0,0.2,0.1,0.3,0.1,0.5c0.1,0.2,0.5,0.3,1,0.3l0,0
	c0.3,0,0.6-0.1,0.9-0.1c0.3-0.1,0.7-0.1,1-0.2c-0.1-0.3-0.3-0.6-0.4-0.8c-0.2-0.5-0.6-0.9-1-1.2c-0.8-0.4-1.7-0.5-2.6-0.4
	L10.6,440.8z"/>
<path class="st3" d="M-2.9,440.5c0.3-0.9,0.7-1.7,1.3-2.5c0.2-0.2,0.3-0.4,0.3-0.7c0-0.2-0.1-0.4-0.2-0.6c-0.4-1.1-0.4-2.4,0.2-3.5
	c-0.6-0.7-1.8-0.3-2.3,0.4c-0.6,0.7-0.8,1.6-1.4,2.4c-0.5,0.5-1.1,1-1.7,1.4C-10.4,440.1-5.4,441.6-2.9,440.5z"/>
<path class="st1" d="M-4.9,441.9c-1.6,0-3.2-0.5-3.8-1.6c-0.4-0.7-0.8-2.1,1.4-3.7c0.2-0.1,0.3-0.3,0.5-0.4c0.4-0.2,0.7-0.5,1-0.8
	c0.2-0.3,0.4-0.6,0.6-1c0.2-0.5,0.5-0.9,0.8-1.3c0.5-0.7,1.4-1.2,2.3-1.2c0.6,0,1.2,0.2,1.6,0.7c0.3,0.3,0.3,0.7,0.1,1.1
	c-0.4,0.8-0.5,1.8-0.1,2.7c0.2,0.3,0.2,0.7,0.2,1c0,0.4-0.2,0.9-0.5,1.2c-0.5,0.7-0.9,1.5-1.2,2.3c-0.1,0.3-0.3,0.5-0.5,0.6
	C-3.2,441.7-4,441.9-4.9,441.9z M-2.9,440.5L-2.9,440.5z M-2.6,434c-0.1,0.1-0.2,0.1-0.2,0.2c-0.2,0.3-0.4,0.6-0.5,1
	c-0.2,0.5-0.5,1-0.8,1.4c-0.4,0.5-0.9,0.9-1.4,1.2l-0.5,0.3c-0.8,0.6-1,1-0.9,1.1c0.3,0.5,2,0.9,3.3,0.5c0.3-0.8,0.7-1.6,1.3-2.3
	l0.1-0.2v-0.1C-2.7,436.2-2.8,435.1-2.6,434L-2.6,434z"/>
<path class="st3" d="M-13.7,436.6c-0.1-0.3-0.2-0.6-0.4-0.9c-0.6-0.6-1.4-0.8-2.2-0.6c0.9,1.1,1.6,2.4,2.1,3.7c0.4,1,2.7,5.6,4,3
	C-9.4,439.8-13.2,438-13.7,436.6z"/>
<path class="st1" d="M-11.3,443.5L-11.3,443.5c-2.2-0.1-3.7-3.9-3.9-4.4c-0.5-1.2-1.2-2.4-2-3.5c-0.2-0.3-0.3-0.7-0.1-1
	c0.2-0.3,0.5-0.6,0.8-0.6c0.7,0,2.2-0.2,3.1,1c0.2,0.3,0.3,0.6,0.4,0.9l0.1,0.2l0,0c0.4,0.5,0.8,1,1.3,1.3c1.3,1.1,3.1,2.7,2.1,4.6
	C-9.8,442.9-10.5,443.4-11.3,443.5z M-13.2,438.7c0.4,1,1.1,2,1.9,2.7c0-0.1,0.1-0.1,0.1-0.2c0.3-0.5-0.9-1.5-1.7-2.3L-13.2,438.7z"
	/>
<path class="st3" d="M-1.4,444.2c-1.9-0.4-3.7-0.4-5.6-0.2c-0.3,0-0.7,0.1-0.9,0.3c-0.3,0.2-0.4,0.5-0.3,0.9
	c0.1,0.2,0.4,0.4,0.6,0.5c1,0.4,2,0.6,3,0.8c0.8,0.2,1.7,0.2,2.5-0.1C-1.4,446-1,445.1-1.4,444.2C-1.3,444.3-1.4,444.3-1.4,444.2"/>
<path class="st1" d="M-3.4,447.6c-0.5,0-1-0.1-1.5-0.2c-1.1-0.2-2.1-0.5-3.1-0.9c-0.5-0.2-0.9-0.5-1.2-1c-0.3-0.8-0.1-1.6,0.6-2.1
	c0.4-0.3,0.9-0.4,1.4-0.5c2-0.2,4-0.2,5.9,0.2c0.3,0.1,0.6,0.3,0.7,0.6c0.3,0.5,0.4,1.1,0.2,1.7c-0.2,0.7-0.7,1.4-1.4,1.7
	C-2.3,447.5-2.9,447.6-3.4,447.6z M-6.4,445c0.7,0.2,1.3,0.4,2,0.5c0.6,0.2,1.2,0.2,1.8,0c0.1-0.1,0.3-0.2,0.4-0.4
	C-3.6,444.9-5,444.9-6.4,445L-6.4,445z"/>
<path class="st3" d="M2.1,434.4c-0.7-1.3-1.2-2.7-1.7-4.1c-0.1-0.3-0.2-0.6-0.1-0.9c0.2-0.5,0.8-0.7,1.3-0.6
	c0.5,0.2,0.9,0.5,1.2,0.9c0.8,1,1.3,2.3,1.2,3.6c0,1.3-0.9,2.5-2.2,3c-0.2,0.1-0.5,0.1-0.7,0.1"/>
<path class="st1" d="M1.1,437.5c-0.6,0-1-0.4-1.1-0.9c0-0.6,0.4-1,0.9-1.1c0.2,0,0.4-0.1,0.6-0.1l0.3-0.1c-0.2-0.1-0.4-0.3-0.5-0.5
	c-0.7-1.4-1.3-2.8-1.8-4.2c-0.2-0.5-0.3-1-0.1-1.6c0.4-1,1.5-1.5,2.5-1.2c0.7,0.2,1.3,0.7,1.7,1.3c1,1.2,1.5,2.7,1.4,4.3
	c-0.1,1.7-1.2,3.3-2.9,3.9c-0.3,0.1-0.6,0.1-0.8,0.2L1.1,437.5z M1.3,429.8l0,0.2c0.4,1.3,1,2.5,1.5,3.7c0-0.1,0-0.2,0-0.3
	c0-1.1-0.3-2.1-1-2.9C1.8,430.1,1.6,429.9,1.3,429.8L1.3,429.8z"/>
<path class="st3" d="M4.1,409c0.1,0.7,0.1,1.4,0.1,2.1c-0.3,1.2-1,2.2-1.9,3c0.4,0.7,1.3,0.6,2,0.4c1.2-0.6,2.1-1.6,2.5-2.8
	c0.4-1.1,1.1-4.2,0-5C5.1,405.3,4,407.6,4.1,409z"/>
<path class="st1" d="M3.3,415.6c-0.8,0.1-1.6-0.4-2-1.1c-0.2-0.4-0.1-0.9,0.2-1.2c0.8-0.6,1.4-1.5,1.7-2.5c0.1-0.4,0.1-0.9,0-1.3
	l-0.1-0.5l0,0c-0.1-1.4,0.5-2.8,1.7-3.6c0.8-0.4,1.9-0.3,2.6,0.3c2,1.6,0.4,6.1,0.3,6.2c-0.5,1.5-1.6,2.7-3,3.4
	C4.2,415.5,3.8,415.6,3.3,415.6z M5.1,408.9c0,0.1,0,0.3,0,0.5c0.1,0.6,0.1,1.2,0,1.9c-0.1,0.7-0.4,1.4-0.9,2c0.7-0.5,1.2-1.2,1.5-2
	c0.6-1.5,0.7-3.6,0.3-3.9c-0.4-0.3-0.4-0.2-0.4-0.1C5.2,407.7,5,408.3,5.1,408.9L5.1,408.9z"/>
<path class="st3" d="M29.5,465.1c-0.5-0.2-0.8-0.8-1.1-1.3s-0.9-0.9-1.4-0.7c-0.5,0.2-0.7,1-0.9,1.5c-0.5,1.4-2,2.2-3.3,2.9
	s-2.8,1.7-3,3.2c0,0.4,0.1,1,0.6,1c0.2,0,0.4-0.1,0.5-0.2c1.8-1,4-0.9,5.8-1.8c1.2-0.6,2.1-1.7,2.4-3.1c0.2-1.4-0.5-2.7-1.7-3.3"/>
<path class="st1" d="M20.4,472.9L20.4,472.9c-0.5,0-0.9-0.2-1.1-0.5c-0.4-0.5-0.5-1-0.4-1.6c0.3-2,2.1-3.2,3.5-4
	c1.4-0.8,2.5-1.3,2.8-2.4c0-0.1,0.1-0.2,0.1-0.3c0.1-0.8,0.6-1.5,1.4-1.9c1-0.3,2.1,0.1,2.6,1.1l0.2,0.3c0.2,0.3,0.4,0.5,0.5,0.6
	c0.5,0.2,0.7,0.8,0.5,1.3c-0.1,0.2-0.2,0.3-0.4,0.4c0,0.3,0,0.7,0,1c-0.3,1.6-1.4,3.1-2.9,3.8c-1,0.5-2.1,0.8-3.2,1
	c-0.9,0.2-1.8,0.4-2.7,0.8C21.1,472.8,20.7,472.9,20.4,472.9z M27.2,464.5c0,0,0,0.1,0,0.1l-0.1,0.4c-0.6,1.8-2.3,2.7-3.7,3.4
	c-1,0.4-1.8,1.2-2.4,2.1c0.9-0.3,1.8-0.6,2.7-0.8c0.9-0.2,1.8-0.4,2.6-0.8c0.9-0.5,1.6-1.3,1.8-2.4C28.2,465.8,27.9,465,27.2,464.5
	L27.2,464.5z"/>
<path class="st3" d="M-82.5,396.3c-0.8-0.8-2.2-0.3-2.7,0.7c-0.4,1-0.5,2.2-0.2,3.2c0.5-0.5,1.1-0.9,1.8-1c0.8,0,2,0.4,2.2-0.4
	c-0.3-0.7-0.6-1.5-1-2.1"/>
<path class="st1" d="M-85.4,401.2c-0.5,0-0.9-0.4-1-0.9c-0.3-1.3-0.2-2.6,0.3-3.9c0.5-0.9,1.3-1.5,2.3-1.6c0.7-0.1,1.5,0.1,2,0.7
	c0.2,0.2,0.2,0.4,0.3,0.6c0.4,0.7,0.8,1.5,1.1,2.3c0.1,0.2,0.1,0.4,0,0.6c-0.5,1.3-1.8,1.1-2.5,1.1c-0.2,0-0.4,0-0.6,0
	c-0.5,0.1-0.9,0.4-1.2,0.7C-85,401.1-85.2,401.2-85.4,401.2z M-83.4,396.9h-0.1c-0.3,0-0.6,0.2-0.8,0.5c-0.2,0.3-0.2,0.7-0.2,1
	c0.3-0.1,0.6-0.2,0.9-0.2c0.3,0,0.6,0,0.9,0h0.1c-0.2-0.4-0.3-0.7-0.6-1.1C-83.2,397.1-83.3,397-83.4,396.9L-83.4,396.9z"/>
<path class="st3" d="M-85.1,392c0.6-2-0.8-4-2.9-2.7c-1.5,1-1.8,3.6,0.2,4.2C-86.6,393.8-85.4,393.1-85.1,392z"/>
<path class="st1" d="M-87.2,394.6c-0.3,0-0.5,0-0.8-0.1c-1.1-0.3-2-1.2-2.1-2.4c-0.2-1.4,0.5-2.8,1.7-3.6c1-0.7,2.3-0.8,3.3-0.1
	c1.1,1,1.5,2.5,1.1,3.9l0,0c-0.2,0.8-0.8,1.5-1.5,1.9C-86.1,394.4-86.6,394.6-87.2,394.6z M-86.6,389.9c-0.3,0-0.5,0.1-0.7,0.3
	c-0.5,0.3-0.8,1-0.8,1.6c0.1,0.4,0.3,0.7,0.7,0.8c0.6,0.1,1.2-0.2,1.4-0.8c0.2-0.6,0.1-1.3-0.3-1.8
	C-86.4,389.9-86.5,389.9-86.6,389.9L-86.6,389.9z M-85.1,392L-85.1,392z"/>
<circle class="st4" cx="-171.1" cy="357" r="2.8"/>
<path class="st1" d="M-171.1,360.9c-2.1,0-3.8-1.7-3.8-3.8c0-2.1,1.7-3.8,3.8-3.8c2.1,0,3.8,1.7,3.8,3.8c0,0,0,0,0,0
	C-167.2,359.2-168.9,360.9-171.1,360.9z M-171.1,355.2c-1,0-1.8,0.8-1.8,1.8c0,1,0.8,1.8,1.8,1.8c1,0,1.8-0.8,1.8-1.8c0,0,0,0,0,0
	C-169.2,356-170,355.2-171.1,355.2C-171,355.2-171,355.2-171.1,355.2L-171.1,355.2z"/>
<circle class="st5" cx="-161.3" cy="357" r="2.8"/>
<path class="st1" d="M-161.3,360.9c-2.1,0-3.8-1.7-3.8-3.8c0-2.1,1.7-3.8,3.8-3.8c2.1,0,3.8,1.7,3.8,3.8
	C-157.5,359.2-159.2,360.9-161.3,360.9L-161.3,360.9z M-161.3,355.2c-1,0-1.8,0.8-1.8,1.8c0,1,0.8,1.8,1.8,1.8c1,0,1.8-0.8,1.8-1.8
	c0,0,0,0,0,0C-159.4,356-160.2,355.2-161.3,355.2C-161.3,355.2-161.3,355.2-161.3,355.2L-161.3,355.2z"/>
<circle class="st3" cx="-151.5" cy="357" r="2.8"/>
<path class="st1" d="M-151.5,360.9c-2.1,0-3.8-1.7-3.8-3.8c0-2.1,1.7-3.8,3.8-3.8s3.8,1.7,3.8,3.8c0,0,0,0,0,0
	C-147.7,359.2-149.4,360.9-151.5,360.9z M-151.5,355.2c-1,0-1.8,0.8-1.8,1.8c0,1,0.8,1.8,1.8,1.8c1,0,1.8-0.8,1.8-1.8c0,0,0,0,0,0
	C-149.7,356.1-150.5,355.2-151.5,355.2C-151.5,355.2-151.5,355.2-151.5,355.2L-151.5,355.2z"/>
<path class="st2" d="M-144.7,386.2c-0.5,0-0.9-0.3-1-0.8l-0.3-1.5c-0.1-0.5,0.2-1.1,0.7-1.2c0.5-0.1,1.1,0.2,1.2,0.7l0.3,1.5
	c0.1,0.5-0.2,1.1-0.7,1.2c0,0,0,0,0,0C-144.6,386.1-144.6,386.1-144.7,386.2z"/>
<path class="st2" d="M-128.6,455c-0.5,0-0.9-0.3-1-0.8l-0.7-2.9c-0.1-0.5,0.2-1.1,0.7-1.2c0.5-0.1,1.1,0.2,1.2,0.7l0.7,3
	c0.1,0.5-0.2,1.1-0.7,1.2c0,0,0,0,0,0C-128.5,455-128.6,455-128.6,455z M-130.9,445.2c-0.5,0-0.9-0.3-1-0.8l-0.7-2.9
	c-0.1-0.5,0.3-1.1,0.8-1.1c0.5-0.1,1,0.2,1.1,0.7l0.7,3c0.1,0.5-0.2,1.1-0.7,1.2L-130.9,445.2z M-133.2,435.3c-0.5,0-0.9-0.3-1-0.8
	l-0.7-2.9c-0.1-0.5,0.2-1.1,0.8-1.2s1.1,0.2,1.2,0.8l0.7,3c0.1,0.5-0.2,1.1-0.7,1.2c0,0,0,0,0,0
	C-133.1,435.3-133.2,435.3-133.2,435.3z M-135.5,425.5c-0.5,0-0.9-0.3-1-0.8l-0.7-3c-0.1-0.6,0.2-1.1,0.8-1.2
	c0.6-0.1,1.1,0.2,1.2,0.8l0.7,3c0.1,0.5-0.2,1.1-0.7,1.2c0,0,0,0,0,0C-135.3,425.5-135.4,425.5-135.5,425.5L-135.5,425.5z
	 M-137.8,415.7c-0.5,0-0.9-0.3-1-0.8l-0.7-3c-0.1-0.5,0.2-1.1,0.7-1.2c0.5-0.1,1.1,0.2,1.2,0.7c0,0,0,0,0,0l0.7,3
	c0.1,0.5-0.2,1.1-0.7,1.2L-137.8,415.7z M-140.1,405.8c-0.5,0-0.9-0.3-1-0.8l-0.7-3c-0.1-0.6,0.2-1.1,0.8-1.2
	c0.6-0.1,1.1,0.2,1.2,0.8l0.7,3c0.1,0.5-0.2,1.1-0.7,1.2c0,0,0,0,0,0C-139.9,405.9-140,405.8-140.1,405.8L-140.1,405.8z M-142.4,396
	c-0.5,0-0.9-0.3-1-0.8l-0.7-3c-0.2-0.5,0.1-1.1,0.6-1.3c0.5-0.2,1.1,0.1,1.3,0.6c0,0.1,0,0.1,0,0.2l0.7,3c0.1,0.5-0.2,1.1-0.7,1.2
	L-142.4,396z"/>
<path class="st2" d="M-126.7,463.4c-0.1,0-0.2,0-0.3,0c-0.4-0.1-0.6-0.4-0.7-0.8l-0.3-1.5c-0.1-0.5,0.2-1.1,0.8-1.2
	c0.4-0.1,0.8,0.1,1.1,0.4c0.4-0.2,0.8-0.2,1.2,0.1c0.4,0.4,0.4,1,0.1,1.4l-1,1.1C-126.1,463.3-126.4,463.4-126.7,463.4z"/>
<path class="st2" d="M-121.3,457.4c-0.6,0-1-0.5-1-1c0-0.2,0.1-0.5,0.2-0.6l1.9-2.1c0.4-0.4,1-0.4,1.4,0c0.4,0.4,0.4,0.9,0.1,1.3
	l-1.9,2.1C-120.8,457.3-121.1,457.4-121.3,457.4z M-115.1,450.5c-0.6,0-1-0.5-1-1c0-0.2,0.1-0.5,0.3-0.7l1.9-2.1
	c0.4-0.4,1-0.4,1.4-0.1c0.4,0.4,0.5,1,0.1,1.4c0,0,0,0,0,0l-1.9,2.1C-114.6,450.4-114.9,450.5-115.1,450.5L-115.1,450.5z
	 M-108.9,443.7c-0.6,0-1-0.4-1-1c0-0.3,0.1-0.5,0.3-0.7l1.9-2.1c0.4-0.4,1-0.5,1.4-0.1c0,0,0,0,0,0c0.4,0.4,0.4,1,0.1,1.4l-1.8,2.1
	C-108.4,443.6-108.7,443.7-108.9,443.7L-108.9,443.7z M-102.8,436.8c-0.2,0-0.5-0.1-0.7-0.3c-0.4-0.4-0.4-1-0.1-1.4l1.9-2.1
	c0.4-0.4,1-0.4,1.4,0c0.4,0.4,0.4,0.9,0.1,1.3l-1.9,2.1C-102.2,436.7-102.5,436.8-102.8,436.8L-102.8,436.8z M-96.6,429.9
	c-0.6,0-1-0.4-1-1c0-0.2,0.1-0.5,0.2-0.7l1.9-2.1c0.4-0.4,1-0.4,1.4-0.1c0.4,0.4,0.4,1,0.1,1.4l-1.9,2.1
	C-96,429.8-96.3,429.9-96.6,429.9L-96.6,429.9z"/>
<path class="st2" d="M-88.8,423.3c-0.4,0-0.7-0.2-0.9-0.6c-0.4,0.4-1,0.4-1.4,0c-0.4-0.4-0.4-1,0-1.4l1-1.1c0.2-0.3,0.6-0.4,0.9-0.3
	c0.3,0.1,0.6,0.3,0.8,0.6l0.6,1.4c0.2,0.5,0,1.1-0.5,1.3C-88.5,423.2-88.6,423.3-88.8,423.3z"/>
<path class="st2" d="M-74.5,456.2c-0.4,0-0.8-0.2-0.9-0.6l-1.1-2.5c-0.2-0.5,0.1-1.1,0.6-1.3c0.5-0.2,1,0,1.2,0.5l1.1,2.5
	c0.2,0.5,0,1.1-0.5,1.3C-74.2,456.2-74.4,456.2-74.5,456.2z M-78.1,448c-0.4,0-0.8-0.2-0.9-0.6l-1.1-2.5c-0.2-0.5,0-1.1,0.5-1.3
	c0,0,0,0,0,0c0.5-0.2,1.1,0,1.3,0.5l1.1,2.5c0.2,0.5,0,1.1-0.5,1.3c0,0,0,0,0,0C-77.8,447.9-77.9,448-78.1,448L-78.1,448z
	 M-81.6,439.7c-0.4,0-0.8-0.2-0.9-0.6l-1.1-2.5c-0.2-0.5,0-1.1,0.5-1.3c0.5-0.2,1.1,0,1.3,0.5c0,0,0,0,0,0l1.1,2.5
	c0.2,0.5,0,1.1-0.5,1.3C-81.4,439.7-81.5,439.7-81.6,439.7L-81.6,439.7z M-85.2,431.5c-0.4,0-0.8-0.2-0.9-0.6l-1.1-2.5
	c-0.2-0.5,0-1.1,0.5-1.3c0.5-0.2,1.1,0,1.3,0.5l1.1,2.5c0.2,0.5,0,1.1-0.5,1.3c0,0,0,0,0,0C-84.9,431.5-85,431.5-85.2,431.5z"/>
<path class="st2" d="M-71.4,463.4c-0.4,0-0.8-0.2-0.9-0.6l-0.6-1.4c-0.2-0.5,0-1.1,0.4-1.3c0.5-0.2,1.1,0,1.3,0.4c0,0,0,0.1,0,0.1
	l0.3,0.7l0.8-0.1c0.5,0,1,0.4,1.1,0.9c0.1,0.5-0.4,1-0.9,1.1c0,0,0,0,0,0L-71.4,463.4L-71.4,463.4z"/>
<path class="st2" d="M-62.8,462.6c-0.5,0-1-0.4-1-0.9c-0.1-0.5,0.4-1,0.9-1.1c0,0,0,0,0,0l3-0.3c0.5,0,1,0.4,1.1,0.9
	c0.1,0.5-0.4,1-0.9,1.1c0,0,0,0,0,0L-62.8,462.6L-62.8,462.6z M-52.7,461.8c-0.5,0-1-0.4-1-0.9c-0.1-0.5,0.4-1,0.9-1.1c0,0,0,0,0,0
	l3-0.3c0.6,0,1,0.4,1.1,0.9c0,0.6-0.4,1-0.9,1.1L-52.7,461.8L-52.7,461.8z M-42.5,460.9c-0.6,0-1-0.4-1-1c0-0.6,0.4-1,1-1l3-0.3
	c0.6,0,1,0.4,1.1,0.9c0,0.6-0.4,1-0.9,1.1L-42.5,460.9L-42.5,460.9z M-32.4,460c-0.6,0-1-0.4-1-1c0-0.6,0.4-1,1-1l3-0.3
	c0.6,0,1,0.4,1.1,0.9c0,0.6-0.4,1-0.9,1.1l0,0L-32.4,460L-32.4,460z M-22.3,459.1c-0.6,0-1-0.4-1-1c0-0.6,0.4-1,1-1l3.1-0.3
	c0.6,0,1,0.4,1.1,0.9c0,0.6-0.4,1-0.9,1.1l-3,0.3H-22.3z M-12.1,458.3c-0.6,0-1-0.4-1-1c0-0.6,0.4-1,1-1l0,0l3-0.3
	c0.5,0,1,0.4,1.1,0.9c0,0.5-0.4,1-0.9,1.1L-12.1,458.3L-12.1,458.3z M-2,457.4c-0.6,0-1-0.4-1-1c0-0.6,0.4-1,1-1l3-0.3
	c0.6,0,1,0.4,1.1,0.9c0,0.6-0.4,1-0.9,1.1L-2,457.4L-2,457.4z M8.2,456.5c-0.5,0-1-0.4-1-0.9c0-0.5,0.4-1,0.9-1.1l3-0.3
	c0.6,0,1,0.4,1.1,0.9c0,0.6-0.4,1-0.9,1.1L8.2,456.5L8.2,456.5z"/>
<path class="st2" d="M18.3,455.7c-0.6,0-1-0.4-1.1-0.9c0-0.6,0.4-1,0.9-1.1c-0.2-0.5,0-1.1,0.5-1.3c0.5-0.2,1.1-0.1,1.3,0.4l0.7,1.3
	c0.3,0.5,0.1,1.1-0.4,1.4c-0.1,0.1-0.3,0.1-0.4,0.1L18.3,455.7L18.3,455.7z"/>
<path class="st2" d="M15.9,448.4c-0.4,0-0.7-0.2-0.9-0.5l-1.4-2.5c-0.3-0.5-0.1-1.1,0.4-1.4c0.5-0.3,1.1-0.1,1.4,0.4l1.4,2.5
	c0.3,0.5,0.1,1.1-0.4,1.4c0,0,0,0,0,0C16.3,448.4,16.1,448.4,15.9,448.4z M11.4,440.2c-0.4,0-0.7-0.2-0.9-0.5l-1.4-2.5
	c-0.3-0.5-0.1-1.1,0.4-1.4c0.5-0.3,1.1-0.1,1.4,0.4l1.4,2.5c0.3,0.5,0.1,1.1-0.4,1.4C11.8,440.1,11.6,440.2,11.4,440.2z M6.9,431.9
	c-0.4,0-0.7-0.2-0.9-0.5l-1.4-2.5c-0.3-0.5-0.1-1.1,0.4-1.4c0.5-0.3,1.1-0.1,1.4,0.4l1.4,2.5c0.3,0.5,0.1,1.1-0.4,1.4c0,0,0,0,0,0
	C7.2,431.8,7.1,431.9,6.9,431.9z M2.4,423.6c-0.4,0-0.7-0.2-0.9-0.5l-1.4-2.5c-0.3-0.5-0.1-1.1,0.4-1.4c0,0,0,0,0,0
	c0.5-0.3,1.1-0.1,1.4,0.4c0,0,0,0,0,0l1.4,2.5c0.3,0.5,0.1,1.1-0.4,1.4C2.7,423.6,2.6,423.7,2.4,423.6L2.4,423.6z M-2.1,415.4
	c-0.4,0-0.7-0.2-0.9-0.5l-1.4-2.5c-0.3-0.5-0.1-1.1,0.4-1.4c0.5-0.3,1.1-0.1,1.4,0.4l1.4,2.5c0.3,0.5,0.1,1.1-0.4,1.4
	C-1.8,415.3-1.9,415.3-2.1,415.4L-2.1,415.4z M-6.6,407.1c-0.4,0-0.7-0.2-0.9-0.5l-1.4-2.5c-0.3-0.5-0.1-1.1,0.4-1.4
	c0.5-0.3,1.1-0.1,1.4,0.4l1.4,2.5c0.3,0.5,0.1,1.1-0.4,1.4C-6.3,407-6.4,407.1-6.6,407.1L-6.6,407.1z M-11.2,398.9
	c-0.4,0-0.7-0.2-0.9-0.5l-1.3-2.5c-0.3-0.5-0.1-1.1,0.4-1.4c0.5-0.3,1.1-0.1,1.4,0.4l1.4,2.5c0.3,0.5,0.1,1.1-0.4,1.4
	C-10.8,398.8-11,398.9-11.2,398.9z"/>
<path class="st2" d="M-15.6,390.7c-0.4,0-0.7-0.2-0.9-0.5l-0.3-0.5l-0.5,0.2c-0.5,0.2-1.1,0-1.3-0.5c-0.2-0.5,0-1.1,0.5-1.3
	c0,0,0,0,0,0l1.4-0.6c0.5-0.2,1.1,0,1.3,0.4l0.7,1.3c0.3,0.5,0.1,1.1-0.4,1.4c0,0,0,0,0,0C-15.3,390.6-15.5,390.6-15.6,390.7z"/>
<path class="st2" d="M-78.7,418.8c-0.6,0-1-0.5-0.9-1c0-0.3,0.2-0.7,0.5-0.8l2.6-1.2c0.5-0.2,1.1,0,1.3,0.5c0.2,0.5,0,1.1-0.5,1.3
	l-2.6,1.2C-78.4,418.7-78.6,418.8-78.7,418.8z M-70,414.6c-0.4,0-0.7-0.2-0.9-0.6c-0.2-0.5,0-1.1,0.5-1.3c0,0,0,0,0,0l2.6-1.2
	c0.5-0.2,1.1,0,1.3,0.5c0.2,0.5,0,1.1-0.5,1.3c0,0,0,0,0,0l-2.6,1.2C-69.7,414.6-69.9,414.7-70,414.6z M-61.3,410.5
	c-0.6,0-1-0.4-1-1c0-0.4,0.2-0.8,0.6-0.9l2.6-1.2c0.5-0.2,1.1,0,1.3,0.5c0.2,0.5,0,1.1-0.5,1.3l-2.6,1.2
	C-61,410.5-61.1,410.5-61.3,410.5L-61.3,410.5z M-52.6,406.4c-0.6,0-1-0.5-1-1c0-0.4,0.2-0.7,0.6-0.9l2.6-1.2
	c0.5-0.3,1.1-0.1,1.4,0.3c0.3,0.5,0.1,1.1-0.3,1.4c-0.1,0-0.1,0.1-0.2,0.1l-2.6,1.2C-52.3,406.4-52.4,406.4-52.6,406.4L-52.6,406.4z
	 M-43.8,402.3c-0.6,0-1-0.5-1-1c0-0.4,0.2-0.7,0.6-0.9l2.6-1.2c0.5-0.2,1.1,0,1.3,0.5c0.2,0.5,0,1.1-0.5,1.3l-2.6,1.2
	C-43.6,402.3-43.7,402.3-43.8,402.3L-43.8,402.3z M-35.1,398.2c-0.6,0-1-0.4-1-1c0-0.4,0.2-0.8,0.6-0.9l2.6-1.2
	c0.5-0.2,1.1,0,1.3,0.5c0.2,0.5,0,1.1-0.5,1.3c0,0,0,0,0,0l-2.6,1.2C-34.9,398.2-35,398.2-35.1,398.2L-35.1,398.2z M-26.4,394.1
	c-0.6,0-1-0.5-1-1c0-0.4,0.2-0.7,0.6-0.9l2.6-1.2c0.5-0.2,1.1,0,1.3,0.5c0,0,0,0,0,0c0.2,0.5,0,1.1-0.5,1.3c0,0,0,0,0,0L-26,394
	C-26.1,394.1-26.3,394.1-26.4,394.1L-26.4,394.1z"/>
<path class="st2" d="M-86.2,422.3c-0.6,0-1-0.5-1-1c0-0.4,0.2-0.7,0.6-0.9l1.4-0.6c0.5-0.2,1.1,0,1.3,0.5c0.2,0.5,0,1.1-0.5,1.3
	c0,0,0,0,0,0l-1.4,0.6C-85.9,422.2-86,422.3-86.2,422.3z"/>
<path class="st2" d="M-91,424.3c-0.5,0-1-0.4-1-0.9l-0.2-3c0-0.6,0.4-1,0.9-1.1c0.6,0,1,0.4,1.1,0.9l0.2,3
	C-90,423.8-90.4,424.2-91,424.3C-90.9,424.3-90.9,424.3-91,424.3L-91,424.3z M-91.7,414.3c-0.5,0-1-0.4-1-0.9l-0.2-3
	c0-0.6,0.4-1,0.9-1.1c0.6,0,1,0.4,1.1,0.9l0.2,3C-90.7,413.8-91.1,414.2-91.7,414.3C-91.7,414.3-91.7,414.3-91.7,414.3L-91.7,414.3z
	 M-92.4,404.3c-0.5,0-1-0.4-1-0.9l-0.2-3c0-0.5,0.4-1,0.9-1.1c0.5,0,1,0.4,1.1,0.9l0.2,3C-91.4,403.8-91.8,404.2-92.4,404.3
	C-92.4,404.3-92.4,404.3-92.4,404.3L-92.4,404.3z M-93.2,394.3c-0.5,0-1-0.4-1-0.9l-0.2-3c0-0.6,0.4-1,0.9-1.1c0.6,0,1,0.4,1.1,0.9
	l0.2,3C-92.1,393.8-92.5,394.2-93.2,394.3L-93.2,394.3z M-93.9,384.3c-0.5,0-1-0.4-1-0.9l-0.1-2c0-0.5,0.4-1,0.9-1.1
	c0.5,0,1,0.4,1.1,0.9l0.1,2C-92.8,383.8-93.2,384.2-93.9,384.3L-93.9,384.3z"/>
<circle class="st2" cx="-126.7" cy="462.4" r="7.8"/>
<path class="st1" d="M-126.7,471.2c-4.9,0-8.8-3.9-8.8-8.8s3.9-8.8,8.8-8.8s8.8,3.9,8.8,8.8c0,0,0,0,0,0
	C-117.9,467.2-121.8,471.2-126.7,471.2z M-126.7,455.5c-3.8,0-6.8,3.1-6.8,6.8c0,3.8,3.1,6.8,6.8,6.8c3.8,0,6.8-3.1,6.8-6.8
	C-119.9,458.6-122.9,455.5-126.7,455.5z"/>
<circle class="st2" cx="-16.4" cy="388.3" r="7.8"/>
<path class="st1" d="M-16.4,397.2c-4.9,0-8.8-3.9-8.8-8.8s3.9-8.8,8.8-8.8c4.9,0,8.8,3.9,8.8,8.8C-7.5,393.2-11.5,397.1-16.4,397.2z
	 M-16.4,381.5c-3.8,0-6.8,3.1-6.8,6.8s3.1,6.8,6.8,6.8c3.8,0,6.8-3.1,6.8-6.8C-9.5,384.6-12.6,381.5-16.4,381.5z"/>
<circle class="st5" cx="-71.4" cy="462.4" r="7.8"/>
<path class="st1" d="M-71.4,471.2c-4.9,0-8.8-3.9-8.8-8.8s3.9-8.8,8.8-8.8s8.8,3.9,8.8,8.8c0,0,0,0,0,0
	C-62.6,467.2-66.5,471.2-71.4,471.2z M-71.4,455.5c-3.8,0-6.8,3.1-6.8,6.8c0,3.8,3.1,6.8,6.8,6.8c3.8,0,6.8-3.1,6.8-6.8
	C-64.6,458.6-67.6,455.5-71.4,455.5z"/>
<circle class="st4" cx="-89.5" cy="423.3" r="7.8"/>
<path class="st1" d="M-89.5,432.1c-4.9,0-8.8-3.9-8.8-8.8c0-4.9,3.9-8.8,8.8-8.8s8.8,3.9,8.8,8.8c0,0,0,0,0,0
	C-80.7,428.1-84.6,432.1-89.5,432.1z M-89.5,416.5c-3.8,0-6.8,3.1-6.8,6.8c0,3.8,3.1,6.8,6.8,6.8c3.8,0,6.8-3.1,6.8-6.8
	C-82.7,419.5-85.7,416.5-89.5,416.5L-89.5,416.5z"/>
<circle class="st4" cx="19.8" cy="454.5" r="7.8"/>
<path class="st1" d="M19.8,463.4c-4.9,0-8.8-3.9-8.8-8.8c0-4.9,3.9-8.8,8.8-8.8c4.9,0,8.8,3.9,8.8,8.8
	C28.7,459.4,24.7,463.4,19.8,463.4z M19.8,447.7c-3.8,0-6.8,3.1-6.8,6.8c0,3.8,3.1,6.8,6.8,6.8c3.8,0,6.8-3.1,6.8-6.8
	C26.7,450.8,23.6,447.7,19.8,447.7z"/>
<path class="st2" d="M-136.8,385.9c-0.6,0-1-0.4-1.1-1c0-0.6,0.4-1,0.9-1l3-0.3c0.5-0.1,1,0.3,1.1,0.9c0,0,0,0,0,0
	c0.1,0.5-0.3,1-0.9,1.1c0,0,0,0,0,0l-3,0.3L-136.8,385.9z M-126.8,384.9c-0.6,0-1-0.4-1.1-1c0-0.6,0.4-1,0.9-1l3-0.3
	c0.6-0.1,1,0.4,1.1,0.9c0.1,0.6-0.4,1-0.9,1.1L-126.8,384.9L-126.8,384.9z M-116.8,383.9c-0.6,0-1-0.4-1.1-1c0-0.6,0.4-1,0.9-1
	l3-0.3c0.5-0.1,1,0.3,1.1,0.9c0.1,0.5-0.3,1-0.9,1.1c0,0,0,0,0,0L-116.8,383.9L-116.8,383.9z M-106.9,382.9c-0.6,0-1-0.4-1.1-1
	c0-0.6,0.4-1,0.9-1l3-0.3c0.6-0.1,1,0.3,1.1,0.9c0.1,0.6-0.3,1-0.9,1.1L-106.9,382.9L-106.9,382.9z M-96.9,381.9c-0.6,0-1-0.4-1.1-1
	c0-0.6,0.4-1,0.9-1l3-0.3c0.6-0.1,1,0.3,1.1,0.9c0.1,0.6-0.3,1-0.9,1.1L-96.9,381.9L-96.9,381.9z"/>
<circle class="st4" cx="-143.5" cy="385.5" r="7.8"/>
<path class="st1" d="M-143.5,394.4c-4.9,0-8.8-3.9-8.8-8.8s3.9-8.8,8.8-8.8s8.8,3.9,8.8,8.8l0,0
	C-134.6,390.4-138.6,394.3-143.5,394.4z M-143.5,378.7c-3.8,0-6.8,3.1-6.8,6.8c0,3.8,3.1,6.8,6.8,6.8c3.8,0,6.8-3.1,6.8-6.8l0,0
	C-136.6,381.8-139.7,378.7-143.5,378.7z"/>
<circle class="st5" cx="-94" cy="381.4" r="7.8"/>
<path class="st1" d="M-94,390.3c-4.9,0-8.8-3.9-8.8-8.8c0-4.9,3.9-8.8,8.8-8.8s8.8,3.9,8.8,8.8c0,0,0,0,0,0
	C-85.2,386.3-89.1,390.2-94,390.3z M-94,374.6c-3.8,0-6.8,3-6.8,6.8c0,3.8,3,6.8,6.8,6.8c3.8,0,6.8-3,6.8-6.8c0,0,0,0,0,0
	C-87.2,377.7-90.2,374.6-94,374.6z"/>
</svg>
